<?xml version="1.0" encoding="utf-8"?>
<!-- Generator: Adobe Illustrator 27.5.0, SVG Export Plug-In . SVG Version: 6.00 Build 0)  -->
<svg version="1.1" xmlns="http://www.w3.org/2000/svg" xmlns:xlink="http://www.w3.org/1999/xlink" x="0px" y="0px"
	 viewBox="0 0 500 500" style="enable-background:new 0 0 500 500;" xml:space="preserve">
<g id="BACKGROUND">
	<rect style="fill:#FBE4C9;" width="500" height="500"/>
	<circle style="fill:#FFF5F0;" cx="246.93" cy="217.886" r="157.662"/>
</g>
<g id="OBJECTS">
	<ellipse style="fill:#EBC29D;" cx="260.641" cy="430.152" rx="132.946" ry="23.891"/>
	<g>
		<g>
			<path style="fill:#F83832;" d="M359.722,384.014c-0.084,0-0.169,0.001-0.254,0.002c-5.168,0.078-9.488,3.03-11.556,7.897
				c-2.087,4.912-1.364,10.482,1.797,13.86c0.566,0.605,0.535,1.555-0.069,2.12c-0.606,0.567-1.555,0.535-2.12-0.069
				c-0.889-0.95-1.618-2.039-2.199-3.215c-1.534,1.279-4.676,3.572-8.342,4.496c0.671,4.394-2.578,7.519-2.734,7.665
				c-0.29,0.271-0.658,0.406-1.026,0.406c-0.399,0-0.799-0.159-1.094-0.474c-0.565-0.603-0.537-1.549,0.063-2.116
				c0.125-0.12,2.81-2.755,1.546-6.121c-0.74-1.971-2.719-2.616-4.198-2.817l1.361,2.053c0.338,0.509,0.333,1.172-0.012,1.676
				c-3.526,5.155-10.316,5.474-10.604,5.484c-0.02,0.001-0.038,0.001-0.058,0.001c-0.463,0-0.901-0.214-1.187-0.582l-2.22-2.869
				c-0.812,1.363-1.799,3.921,0.333,6.203c3.105,3.325,8.213,0.829,8.428,0.721c0.74-0.369,1.641-0.071,2.013,0.666
				c0.372,0.739,0.078,1.638-0.659,2.012c-0.175,0.088-2.664,1.321-5.63,1.321c-0.509,0-1.032-0.038-1.559-0.122
				c0.189,2.144,1.567,6.492,9.234,9.045c10.731,3.574,36.277-11.596,43.01-23.315c3.172-5.521,3.296-11.82,0.333-16.853
				C369.665,386.583,365.084,384.014,359.722,384.014z"/>
			<path style="fill:#6F3919;" d="M327.8,408.46l-43.541-65.665c-2.496,0.565-9.258,2.423-11.78,6.397l48.422,62.595
				C322.357,411.583,325.651,410.871,327.8,408.46z"/>
			<path style="fill:#371F0E;" d="M359.711,381.014c-0.096,0-0.192,0.001-0.288,0.002c-6.392,0.097-11.727,3.732-14.272,9.724
				c-1.508,3.549-1.777,7.404-0.93,10.84c-0.066,0.064-3.863,3.699-8.241,4.686c-2.465-4.132-8.134-3.708-8.474-3.677L286.2,340.292
				c-0.327-0.494-0.917-0.754-1.502-0.649c-0.495,0.084-12.172,2.145-15.365,9.065c-0.234,0.508-0.166,1.103,0.176,1.546
				l45.374,58.655c-1.695,2.245-3.537,6.885,0.076,10.754c0.563,0.603,1.163,1.069,1.779,1.444c-0.056,0.929,0,2.671,0.883,4.708
				c1.115,2.571,3.826,6.096,10.409,8.288c1.362,0.454,2.897,0.665,4.564,0.665c13.444-0.002,35.347-13.759,41.994-25.332
				c3.716-6.468,3.834-13.895,0.316-19.868C371.742,384.196,366.078,381.014,359.711,381.014z M284.259,342.795L327.8,408.46
				c-2.149,2.411-5.443,3.123-6.899,3.326l-48.422-62.595C275.001,345.217,281.763,343.36,284.259,342.795z M371.987,407.941
				c-6.732,11.72-32.278,26.89-43.01,23.315c-7.667-2.554-9.046-6.902-9.234-9.045c0.527,0.084,1.051,0.122,1.559,0.122
				c2.966,0,5.455-1.233,5.63-1.321c0.737-0.374,1.031-1.272,0.659-2.012c-0.372-0.737-1.272-1.035-2.013-0.666
				c-0.215,0.108-5.322,2.604-8.428-0.721c-2.132-2.282-1.145-4.84-0.333-6.203l2.22,2.869c0.285,0.368,0.724,0.582,1.187,0.582
				c0.02,0,0.038,0,0.058-0.001c0.287-0.011,7.077-0.329,10.604-5.484c0.345-0.504,0.35-1.167,0.012-1.676l-1.361-2.053
				c1.478,0.201,3.458,0.846,4.198,2.817c1.265,3.366-1.421,6.001-1.546,6.121c-0.6,0.567-0.628,1.514-0.063,2.116
				c0.295,0.314,0.694,0.474,1.094,0.474c0.368,0,0.736-0.135,1.026-0.406c0.156-0.146,3.405-3.271,2.734-7.665
				c3.667-0.924,6.808-3.217,8.342-4.496c0.58,1.176,1.309,2.265,2.199,3.215c0.565,0.604,1.514,0.637,2.12,0.069
				c0.604-0.565,0.636-1.515,0.069-2.12c-3.161-3.378-3.884-8.948-1.797-13.86c2.067-4.867,6.388-7.819,11.556-7.897
				c0.085-0.001,0.17-0.002,0.254-0.002c5.362,0,9.943,2.568,12.598,7.074C375.283,396.121,375.159,402.421,371.987,407.941z"/>
			<path style="fill:#371F0E;" d="M284.259,342.795c-2.496,0.565-9.258,2.423-11.78,6.397l10.722,13.86
				c0.562-0.68,1.092-1.379,1.583-2.087c2.081-3.003,3.791-6.257,5.118-9.66L284.259,342.795z"/>
			<path style="fill:#FFFFFF;" d="M332.111,416.68c-0.546-0.603-0.516-1.532,0.077-2.093c0.125-0.12,2.81-2.755,1.546-6.121
				c-0.74-1.971-2.719-2.616-4.198-2.817l1.361,2.053c0.338,0.509,0.333,1.172-0.012,1.676c-3.526,5.155-10.316,5.474-10.604,5.484
				c-0.02,0.001-0.038,0.001-0.058,0.001c-0.463,0-0.901-0.214-1.187-0.582l-2.22-2.869c-0.812,1.363-1.799,3.921,0.333,6.203
				c3.105,3.325,8.213,0.829,8.428,0.721c0.74-0.369,1.641-0.071,2.013,0.666c0.124,0.246,0.168,0.51,0.152,0.766
				C329.369,419.014,330.847,417.954,332.111,416.68z"/>
			<path style="fill:#931B1D;" d="M356.944,416.119c-4.466,2.896-8.961,5.755-13.612,8.344c-5.444,3.031-11.708,5.709-17.738,5.35
				c0.966,0.519,2.077,1.009,3.382,1.444c10.731,3.574,36.277-11.596,43.01-23.315c1.713-2.981,2.529-6.189,2.458-9.302
				c-1.423,2.939-3.223,5.679-5.456,8.1C365.53,410.491,361.225,413.342,356.944,416.119z"/>
			<path style="fill:#FFFFFF;" d="M343.323,412.842c-0.11-0.598-0.415-1.104-0.662-1.648c-0.152-0.379-0.302-0.759-0.465-1.135
				c0.083,0.196,0.165,0.391,0.248,0.587c-0.263-0.63-0.443-1.283-0.537-1.959c0.029,0.217,0.058,0.433,0.087,0.65
				c-0.066-0.533-0.146-1.056-0.247-1.582c-0.047-0.246-0.078-0.437-0.178-0.674c-0.099-0.236-0.215-0.419-0.33-0.64
				c-0.571-1.096-2.206-1.258-3.037-0.391c-0.209,0.217-0.416,0.426-0.582,0.683c-0.188,0.291-0.295,0.635-0.369,0.972
				c-0.118,0.538-0.209,1.084-0.146,1.633c0.106,0.922,0.265,1.805,0.619,2.665c0.132,0.322,0.247,0.676,0.433,0.974
				c0.138,0.221,0.314,0.427,0.473,0.632c0.275,0.356,0.557,0.719,0.894,1.02c0.779,0.698,2.164,1.095,3.177,0.784
				c0.488-0.15,0.82-0.582,0.832-1.093C343.546,413.801,343.416,413.346,343.323,412.842z"/>
			<g>
				<path style="fill:#FFFFFF;" d="M346.212,407.731c-0.011-0.025-0.019-0.043-0.029-0.064c0.004,0.01,0.009,0.019,0.013,0.029
					C346.202,407.707,346.207,407.72,346.212,407.731z"/>
				<path style="fill:#FFFFFF;" d="M347.47,409.983c-0.357-0.636-0.77-1.241-1.094-1.897c-0.056-0.114-0.107-0.237-0.164-0.354
					c0.041,0.098,0.076,0.192,0.01,0.027c-0.008-0.021-0.018-0.042-0.026-0.062c-0.014-0.027-0.023-0.058-0.038-0.083
					c0.006,0.01,0.016,0.034,0.026,0.054c-0.072-0.179-0.146-0.358-0.227-0.533c-0.034-0.074-0.069-0.147-0.104-0.221
					c-0.054-0.148-0.116-0.294-0.167-0.443c-0.113-0.328-0.187-0.665-0.285-0.996c-0.035-0.107-0.076-0.212-0.124-0.314
					c-0.016-0.039-0.027-0.063-0.038-0.091c0.115,0.232,0.024,0.001,0.004-0.06c-0.009-0.028-0.042-0.088-0.078-0.154
					c-0.01-0.297-0.12-0.582-0.339-0.801c-0.331-0.331-0.722-0.366-1.159-0.306c-0.545,0.074-1.124,0.494-1.38,0.957
					c-0.308,0.558-0.331,1.185-0.265,1.802c0.12,1.13,0.34,2.143,0.819,3.179c0.397,0.859,0.915,1.768,1.619,2.407
					c0.816,0.74,1.894,1.574,3.054,1.227c0.506-0.151,0.747-0.56,0.803-1.055C348.408,411.431,347.864,410.686,347.47,409.983z"/>
			</g>
		</g>
		<g>
			<path style="fill:#6F3919;" d="M183.965,396.141c2.29-0.904,18.108-7.614,21.486-21.549c3.227-13.313-1.658-25.044-2.949-27.805
				c-2.807-0.529-8.455-1.004-10.6,1.362c0.894,2.841,3.794,13.084,2.727,23.327c-1.106,10.621-12.164,16.917-15.604,18.63
				C179.286,391.946,180.275,395.814,183.965,396.141z"/>
			<path style="fill:#F83832;" d="M207.129,412.206c-5.79-0.931-12.3,1.689-15.15,6.08c-0.45,0.694-1.378,0.893-2.075,0.442
				c-0.695-0.451-0.893-1.38-0.442-2.075c0.636-0.98,1.41-1.882,2.287-2.7c-1.465-1.195-4.319-3.809-6.077-7.213
				c-1.064,0.441-2.108,0.612-3.074,0.612c-2.758,0-4.881-1.343-5.015-1.429c-0.695-0.45-0.895-1.379-0.444-2.074
				c0.449-0.695,1.374-0.895,2.068-0.448c0.146,0.092,3.351,2.064,6.314,0.026c1.982-1.362,1.88-3.926,1.625-5.39
				c-1.436,0.665-2.358,1.001-2.444,1.032c-0.163,0.058-0.334,0.088-0.507,0.088c-0.019,0-0.037,0-0.056-0.001
				c-6.27-0.232-8.111-6.585-8.209-9.912c-0.018-0.612,0.34-1.175,0.902-1.42c0.018-0.008,0.282-0.126,0.718-0.343
				c-1.529-0.239-3.541-0.042-4.902,2.054c-2.479,3.814,1.173,8.169,1.33,8.353c0.537,0.629,0.465,1.575-0.163,2.114
				c-0.283,0.243-0.631,0.362-0.978,0.362c-0.42,0-0.837-0.176-1.133-0.519c-0.149-0.173-2.588-3.052-2.895-6.688
				c-2.036,0.7-5.923,3.085-6.554,11.14c-0.884,11.275,19.986,32.418,32.983,36.132c5.749,1.644,11.838,0.02,16.288-4.343
				c4.361-4.274,6.171-10.336,4.723-15.819C214.666,414.268,209.856,412.641,207.129,412.206z"/>
			<path style="fill:#371F0E;" d="M207.603,409.243c-4.656-0.742-9.583,0.394-13.398,2.825c-0.855-0.65-4.27-3.4-6.012-6.983
				c2.781-2.752,2.133-6.83,1.727-8.442c1.519-0.824,3.252-1.861,5.052-3.138c7.096-5.034,11.728-11.329,13.396-18.206
				c3.955-16.315-3.211-29.965-3.518-30.538c-0.204-0.381-0.562-0.655-0.982-0.753c-1.173-0.273-11.551-2.503-14.915,3.107
				c-0.229,0.381-0.276,0.843-0.131,1.263c0.04,0.115,3.983,11.675,2.825,22.789c-0.703,6.741-6.47,11.629-10.597,14.306
				c-0.016-0.009-0.03-0.021-0.046-0.029c-2.42-1.21-7.806-2.254-10.868,2.458c-0.449,0.691-0.765,1.387-0.981,2.075
				c-0.917,0.171-2.59,0.646-4.349,1.989c-2.227,1.701-4.996,5.182-5.538,12.099c-1.017,12.969,20.726,35.129,35.15,39.251
				c1.755,0.501,3.535,0.746,5.3,0.746c5.076,0,10.031-2.027,13.912-5.831c5.13-5.028,7.246-12.204,5.523-18.728
				C217.677,413.921,213.468,410.181,207.603,409.243z M194.629,371.477c1.067-10.243-1.833-20.486-2.727-23.327
				c2.145-2.366,7.793-1.892,10.6-1.362c1.291,2.761,6.176,14.492,2.949,27.805c-3.378,13.935-19.197,20.645-21.486,21.549
				c-3.689-0.327-4.678-4.195-4.94-6.034C182.465,388.394,193.523,382.098,194.629,371.477z M211.528,436.087
				c-4.449,4.362-10.539,5.986-16.288,4.343c-12.997-3.714-33.868-24.856-32.983-36.132c0.632-8.055,4.518-10.441,6.554-11.14
				c0.308,3.637,2.746,6.515,2.895,6.688c0.296,0.343,0.713,0.519,1.133,0.519c0.346,0,0.694-0.119,0.978-0.362
				c0.627-0.539,0.699-1.485,0.163-2.114c-0.157-0.184-3.809-4.539-1.33-8.353c1.361-2.095,3.373-2.293,4.902-2.054
				c-0.436,0.217-0.699,0.335-0.718,0.343c-0.562,0.245-0.92,0.808-0.902,1.42c0.098,3.327,1.939,9.68,8.209,9.912
				c0.018,0.001,0.037,0.001,0.056,0.001c0.173,0,0.344-0.03,0.507-0.088c0.085-0.031,1.008-0.367,2.444-1.032
				c0.255,1.464,0.356,4.028-1.625,5.39c-2.964,2.037-6.168,0.065-6.314-0.026c-0.695-0.447-1.62-0.247-2.068,0.448
				c-0.45,0.695-0.251,1.624,0.444,2.074c0.133,0.086,2.257,1.429,5.015,1.429c0.966,0,2.01-0.171,3.074-0.612
				c1.759,3.404,4.613,6.017,6.077,7.213c-0.877,0.818-1.652,1.72-2.287,2.7c-0.451,0.695-0.253,1.624,0.442,2.075
				c0.697,0.45,1.624,0.252,2.075-0.442c2.85-4.392,9.36-7.011,15.15-6.08c2.727,0.436,7.537,2.063,9.122,8.063
				C217.699,425.752,215.89,431.813,211.528,436.087z"/>
			<path style="fill:#371F0E;" d="M202.502,346.788c-2.807-0.529-8.455-1.004-10.6,1.362c0.608,1.933,2.143,7.297,2.727,13.753
				c3.783-2.111,7.255-4.807,10.426-7.83C204.132,350.508,203.025,347.905,202.502,346.788z"/>
			<path style="fill:#FFFFFF;" d="M172.853,400.363c1.097,1.766,2.392,3.381,4.056,4.412c-0.023-0.315,0.046-0.639,0.231-0.924
				c0.449-0.695,1.374-0.895,2.068-0.448c0.146,0.092,3.351,2.064,6.314,0.026c1.982-1.362,1.88-3.926,1.625-5.39
				c-1.436,0.665-2.358,1.001-2.444,1.032c-0.163,0.058-0.334,0.088-0.507,0.088c-0.019,0-0.037,0-0.056-0.001
				c-6.27-0.232-8.111-6.585-8.209-9.912c-0.018-0.612,0.34-1.175,0.902-1.42c0.018-0.008,0.282-0.126,0.718-0.343
				c-1.529-0.239-3.541-0.042-4.902,2.054c-2.479,3.814,1.173,8.169,1.33,8.353c0.537,0.629,0.465,1.575-0.163,2.114
				C173.538,400.243,173.195,400.359,172.853,400.363z"/>
			<path style="fill:#931B1D;" d="M206.877,439.386c-3.63-0.211-7.259-1.127-10.613-2.534c-6.587-2.766-12.284-7.265-17.705-11.918
				c-2.385-2.047-4.744-4.144-6.792-6.529c-2.365-2.754-4.285-5.855-6.194-8.942c-1.158-1.872-2.334-3.836-3.24-5.868
				c-0.025,0.235-0.057,0.459-0.076,0.705c-0.884,11.275,19.986,32.418,32.983,36.132
				C199.171,441.554,203.261,441.148,206.877,439.386z"/>
			<path style="fill:#FFFFFF;" d="M187.621,405.979c-0.265-0.154-0.551-0.231-0.858-0.232c-0.262,0.001-0.506,0.069-0.738,0.182
				c-0.263,0.1-0.53,0.18-0.761,0.354c-0.279,0.21-0.577,0.399-0.816,0.655c-0.283,0.303-0.566,0.605-0.862,0.897
				c-0.287,0.284-0.571,0.564-0.848,0.857c-0.229,0.242-0.462,0.489-0.717,0.705c-0.156,0.114-0.312,0.226-0.467,0.346
				c0.158-0.122,0.316-0.244,0.475-0.367c-0.181,0.132-0.364,0.246-0.543,0.384c-0.261,0.202-0.432,0.401-0.612,0.694
				c-0.022,0.035-0.04,0.072-0.064,0.106c0.012-0.016,0.025-0.032,0.037-0.048c-0.021,0.031-0.046,0.06-0.065,0.093
				c-0.259,0.454-0.331,0.999-0.197,1.504c0.099,0.372,0.325,0.713,0.595,0.981c0.696,0.689,1.673,0.858,2.595,0.591
				c0.918-0.267,1.603-0.911,2.245-1.585c0.582-0.61,1.081-1.294,1.553-1.992c0.287-0.424,0.517-0.83,0.693-1.319
				c0.081-0.224,0.129-0.408,0.162-0.649c0.031-0.232,0.021-0.456,0.033-0.69C188.493,406.857,188.118,406.269,187.621,405.979z"/>
			<path style="fill:#FFFFFF;" d="M191.072,411.497c0-0.131-0.033-0.253-0.099-0.366c-0.059-0.18-0.159-0.336-0.3-0.467
				c0.003,0.005,0.006,0.009,0.009,0.014c-0.341-0.49-0.897-0.607-1.433-0.358c0,0-0.001,0-0.001,0
				c-0.228,0.063-0.44,0.159-0.628,0.343c-0.091,0.089-0.169,0.196-0.255,0.289c-0.229,0.248-0.439,0.497-0.641,0.768
				c0.075-0.098,0.018-0.025-0.035,0.042c-0.005,0.007-0.011,0.012-0.016,0.019c-0.002,0.003-0.006,0.009-0.009,0.012
				c-0.003,0.004-0.009,0.011-0.012,0.014c-0.077,0.094-0.156,0.187-0.237,0.278c-0.174,0.196-0.356,0.385-0.545,0.566
				c-0.374,0.358-0.706,0.756-1.094,1.102c-0.331,0.296-0.673,0.585-1.018,0.866c-0.18,0.125-0.36,0.251-0.504,0.404
				c-0.105,0.111-0.195,0.242-0.292,0.36c-0.308,0.373-0.52,0.731-0.585,1.223c-0.061,0.454-0.003,0.961,0.253,1.357
				c0.534,0.828,1.444,1.184,2.404,0.979c0.952-0.204,1.812-0.821,2.52-1.476c0.581-0.537,1.071-1.231,1.505-1.887
				c0.25-0.378,0.404-0.844,0.568-1.262c0.118-0.299,0.219-0.604,0.306-0.914c0.116-0.416,0.178-0.839,0.177-1.271
				C191.109,411.92,191.1,411.71,191.072,411.497z"/>
		</g>
		<g>
			<path style="fill:#FFFFFF;" d="M427.071,114.42c-0.028-3.388-0.28-19.53-2.49-27.047c-1.131-3.847-4.03-4.741-6.367-4.313
				c-1.989,0.372-3.91,1.873-3.73,4.021c0.452,5.426,1.088,25.858,1.245,31.08c1.313-0.704,2.767-1.354,4.41-1.956
				C422.902,115.194,425.181,114.613,427.071,114.42z"/>
			<path style="fill:#F8BF6D;" d="M426.349,129.02c-0.018,0.014-0.038,0.029-0.056,0.042c0.024,0.01,0.048,0.023,0.072,0.034
				C426.359,129.071,426.355,129.044,426.349,129.02z"/>
			<path style="fill:#FFFFFF;" d="M444.502,113.634c0.314,6.124-2.619,13.327-3.872,15.675c-0.051,0.095-0.127,0.188-0.185,0.282
				c0.077,0.196,0.117,0.409,0.104,0.633c-0.073,1.243,0.906,1.868,1.741,2.174c1.75,0.642,3.931,0.245,4.761-0.862
				c0.26-0.346,0.573-0.742,0.921-1.183c2.614-3.311,6.991-8.851,4.38-12.954C450.03,113.749,446.184,113.534,444.502,113.634z"/>
			<path style="fill:#6F3919;" d="M427.846,163.524c0-0.009,0.002-0.017,0.003-0.025c-1.728-0.128-3.647-0.456-5.771-0.987
				c-1.109-0.277-2.121-0.606-3.084-0.961c-0.134,3.197-1.449,23.437-13.709,45.233c-9.502,16.891-25.891,23.6-29.933,25.041
				c-0.303,2.249-0.751,8.621,3.064,12.554c4.375-2.058,24.27-12.335,36.575-34.232c13.083-23.285,13.435-43.428,13.054-45.874
				C427.918,164.051,427.846,163.796,427.846,163.524z"/>
			<path style="fill:#FFFFFF;" d="M441.258,135.214c-1.659-0.607-2.813-1.691-3.355-3.046c-1.595,1.102-3.568,1.865-5.472,1.898
				c1.257,1.909,2.065,4.331,1.987,7.351c-0.021,0.829-0.748,1.477-1.537,1.462c-0.828-0.021-1.482-0.71-1.462-1.538
				c0.219-8.528-8.38-10.22-8.745-10.288c-0.602-0.111-1.077-0.577-1.199-1.177c-0.122-0.6,0.131-1.213,0.641-1.55
				c4.152-2.746,8.678-6.724,8.796-8.271c0.133-1.721-0.406-2.129-0.584-2.264c-0.565-0.431-2.595-1.171-9.158,1.23
				c-9.353,3.422-12.049,7.733-11.539,18.452c0.445,9.36,11.603,10.834,11.717,10.848c0.822,0.101,1.407,0.85,1.307,1.672
				c-0.094,0.76-0.74,1.317-1.487,1.317c-0.061,0-0.122-0.004-0.185-0.011c-2.151-0.264-5.189-1.153-7.92-2.913
				c-0.309,1.075-0.664,3.156,0.338,5.248c1.306,2.724,4.47,4.73,9.406,5.965c5.51,1.377,9.41,1.274,11.589-0.309
				c1.848-1.342,2.186-3.59,2.332-5.425c-0.348,0.037-0.69,0.054-1.025,0.054c-1.438,0-2.723-0.308-3.616-0.68
				c-0.765-0.318-1.126-1.197-0.808-1.962c0.317-0.763,1.19-1.123,1.955-0.811c0.508,0.206,5.061,1.883,7.858-2.715
				c2.541-4.173,2.858-9.722,2.869-12.06C443.008,135.68,442.074,135.514,441.258,135.214z"/>
			<path style="fill:#FFFFFF;" d="M432.14,115.402c1.341,1.017,1.935,2.659,1.763,4.884c-0.155,2.026-2.416,4.486-4.829,6.563
				c0.131,2.394,0.931,3.793,2.4,4.139c2.224,0.524,5.554-1.297,6.51-3.091c1.949-3.655,6.078-15.511,1.396-19.342
				c-4.649-3.806-9.26-0.813-9.454-0.685c0,0-0.001,0.001-0.001,0.001c0.115,3.117,0.142,5.57,0.148,6.634
				C430.878,114.675,431.569,114.968,432.14,115.402z"/>
			<path style="fill:#371F0E;" d="M454.883,115.787c-3.277-5.148-8.68-5.297-10.84-5.126c-0.481-1.735-1.349-3.272-2.763-4.429
				c-4.206-3.441-8.751-2.845-11.502-1.668c-0.316-6.096-0.969-13.447-2.318-18.037c-1.589-5.399-6.061-7.113-9.797-6.416
				c-3.863,0.722-6.458,3.758-6.17,7.219c0.502,6.023,1.266,31.857,1.273,32.117c0.005,0.186,0.048,0.361,0.114,0.523
				c-4.922,3.741-6.656,9.045-6.246,17.647c0.182,3.835,1.793,6.697,3.949,8.799c-0.231,0.511-1.841,4.383,0.088,8.466
				c1.046,2.215,2.911,4.036,5.558,5.454c-0.132,0.216-0.216,0.465-0.222,0.738c-0.004,0.214-0.622,21.631-13.338,44.237
				c-10.061,17.886-28.905,23.887-29.095,23.945c-0.519,0.16-0.91,0.589-1.024,1.119c-0.097,0.45-2.284,11.095,4.605,16.924
				c0.275,0.232,0.62,0.355,0.969,0.355c0.193,0,0.389-0.037,0.574-0.114c0.996-0.412,24.563-10.398,38.908-35.927
				c13.244-23.568,14.043-43.953,13.289-48.119c2.125-0.181,3.875-0.768,5.262-1.775c3.194-2.32,3.464-6.187,3.609-8.265
				l0.015-0.214c0.006-0.085,0.001-0.167-0.007-0.249c1.414-0.702,2.773-1.86,3.88-3.678c3.162-5.193,3.346-11.876,3.308-14.138
				c0.97-0.382,1.843-0.98,2.489-1.841c0.246-0.329,0.544-0.706,0.874-1.124C453.231,128.534,458.639,121.69,454.883,115.787z
				 M429.925,107.87c0.194-0.128,4.805-3.121,9.454,0.685c4.683,3.831,0.554,15.687-1.396,19.342
				c-0.956,1.794-4.286,3.615-6.51,3.091c-1.469-0.346-2.269-1.745-2.4-4.139c2.413-2.078,4.673-4.537,4.829-6.563
				c0.172-2.225-0.422-3.867-1.763-4.884c-0.571-0.433-1.262-0.727-2.067-0.897c-0.007-1.063-0.034-3.516-0.148-6.634
				C429.924,107.871,429.925,107.871,429.925,107.87z M426.349,129.02c0.006,0.025,0.01,0.051,0.016,0.076
				c-0.024-0.011-0.048-0.023-0.072-0.034C426.311,129.048,426.331,129.033,426.349,129.02z M414.483,87.081
				c-0.18-2.148,1.741-3.649,3.73-4.021c2.337-0.428,5.236,0.467,6.367,4.313c2.211,7.517,2.462,23.659,2.49,27.047
				c-1.889,0.193-4.169,0.774-6.933,1.785c-1.643,0.601-3.096,1.252-4.41,1.956C415.57,112.939,414.934,92.507,414.483,87.081z
				 M414.991,210.145c-12.305,21.897-32.2,32.175-36.575,34.232c-3.815-3.933-3.367-10.305-3.064-12.554
				c4.042-1.441,20.431-8.15,29.933-25.041c12.26-21.796,13.575-42.036,13.709-45.233c0.963,0.355,1.975,0.684,3.084,0.961
				c2.124,0.531,4.043,0.859,5.771,0.987c0,0.009-0.003,0.017-0.003,0.025c0,0.273,0.072,0.527,0.199,0.747
				C428.426,166.717,428.074,186.86,414.991,210.145z M441.092,147.754c-2.798,4.598-7.351,2.921-7.858,2.715
				c-0.766-0.313-1.638,0.048-1.955,0.811c-0.318,0.765,0.043,1.643,0.808,1.962c0.894,0.372,2.179,0.68,3.616,0.68
				c0.334,0,0.677-0.017,1.025-0.054c-0.147,1.834-0.484,4.083-2.332,5.425c-2.179,1.583-6.079,1.686-11.589,0.309
				c-4.937-1.234-8.101-3.241-9.406-5.965c-1.002-2.092-0.646-4.173-0.338-5.248c2.731,1.76,5.769,2.649,7.92,2.913
				c0.063,0.007,0.124,0.011,0.185,0.011c0.747,0,1.394-0.558,1.487-1.317c0.101-0.822-0.484-1.571-1.307-1.672
				c-0.113-0.014-11.272-1.487-11.717-10.848c-0.51-10.719,2.186-15.03,11.539-18.452c6.563-2.401,8.593-1.661,9.158-1.23
				c0.178,0.135,0.717,0.543,0.584,2.264c-0.118,1.547-4.643,5.524-8.796,8.271c-0.51,0.337-0.763,0.95-0.641,1.55
				c0.122,0.6,0.598,1.065,1.199,1.177c0.365,0.068,8.964,1.76,8.745,10.288c-0.021,0.828,0.634,1.517,1.462,1.538
				c0.789,0.015,1.516-0.633,1.537-1.462c0.077-3.02-0.731-5.441-1.987-7.351c1.904-0.034,3.877-0.797,5.472-1.898
				c0.543,1.355,1.697,2.439,3.355,3.046c0.816,0.299,1.75,0.466,2.703,0.48C443.95,138.032,443.633,143.582,441.092,147.754z
				 M447.972,130.353c-0.348,0.44-0.661,0.837-0.921,1.183c-0.83,1.107-3.011,1.504-4.761,0.862
				c-0.835-0.306-1.814-0.931-1.741-2.174c0.013-0.224-0.027-0.437-0.104-0.633c0.058-0.094,0.134-0.187,0.185-0.282
				c1.253-2.348,4.186-9.551,3.872-15.675c1.681-0.1,5.528,0.116,7.849,3.765C454.963,121.502,450.586,127.042,447.972,130.353z"/>
			<path style="fill:#D0D9D3;" d="M417.471,89.542c-0.097-1.849-0.19-3.735,0.294-5.522c0.085-0.315,0.199-0.624,0.326-0.928
				c-1.944,0.41-3.784,1.886-3.608,3.99c0.452,5.426,1.088,25.858,1.245,31.08c0.971-0.52,2.019-1.01,3.162-1.474
				C418.417,107.639,417.944,98.591,417.471,89.542z"/>
			<path style="fill:#D0D9D3;" d="M430.028,111.484c0.029,1.361,0.04,2.419,0.044,3.021c0.806,0.17,1.496,0.464,2.067,0.897
				c1.341,1.017,1.935,2.659,1.763,4.884c-0.155,2.026-2.416,4.486-4.829,6.563c0.131,2.394,0.931,3.793,2.4,4.139
				c0.128,0.03,0.27,0.027,0.405,0.042c-0.074-0.674-0.089-1.344,0.057-2.008c0.359-1.631,1.6-2.893,2.537-4.275
				c1.702-2.51,2.454-5.792,1.436-8.648C435.022,113.61,432.614,111.642,430.028,111.484z"/>
			<path style="fill:#D0D9D3;" d="M440.63,129.309c-0.051,0.095-0.127,0.188-0.185,0.282c0.077,0.196,0.117,0.409,0.104,0.633
				c-0.073,1.243,0.906,1.868,1.741,2.174c0.393,0.144,0.808,0.229,1.225,0.271c0.676-2.033,1.258-4.092,1.652-6.198
				c0.788-4.216,0.777-8.666-0.661-12.696C444.768,119.869,441.873,126.979,440.63,129.309z"/>
			<path style="fill:#D0D9D3;" d="M420.994,130.71c0.376,0.039,0.755,0.072,1.132,0.107c-0.326-0.215-0.571-0.543-0.652-0.94
				c-0.122-0.6,0.131-1.213,0.641-1.55c4.152-2.746,8.678-6.724,8.796-8.271c0.133-1.721-0.406-2.129-0.584-2.264
				c-0.088-0.067-0.216-0.14-0.386-0.209c-2.685,4.09-8.579,5.416-11.413,9.526c-0.366,0.531-0.686,1.158-0.582,1.795
				C418.151,130.163,419.726,130.58,420.994,130.71z"/>
			<path style="fill:#D0D9D3;" d="M425.918,157.689c-1.111-0.229-2.265-0.576-3.036-1.408c-0.771-0.831-0.974-2.284-0.148-3.061
				c0.312-0.294,0.723-0.456,1.123-0.611c0.733-0.284,1.466-0.568,2.198-0.852c0.658-0.255,1.334-0.521,1.852-1.001
				c0.518-0.48,0.847-1.232,0.63-1.904c-0.25-0.773-1.086-1.168-1.838-1.475c-2.203-0.901-4.406-1.801-6.609-2.702
				c-1.601-0.655-3.214-1.315-4.651-2.276c-3.435-2.296-5.593-6.344-5.717-10.461c-0.166,1.634-0.192,3.463-0.093,5.537
				c0.445,9.36,11.603,10.834,11.717,10.848c0.822,0.101,1.407,0.85,1.307,1.672c-0.094,0.76-0.74,1.317-1.487,1.317
				c-0.061,0-0.122-0.004-0.185-0.011c-2.151-0.264-5.189-1.153-7.92-2.913c-0.309,1.075-0.664,3.156,0.338,5.248
				c1.306,2.724,4.47,4.73,9.406,5.965c5.51,1.377,9.41,1.274,11.589-0.309c0.668-0.486,1.135-1.092,1.47-1.752
				C432.608,158.292,429.193,158.366,425.918,157.689z"/>
			<path style="fill:#371F0E;" d="M428.045,164.271c-0.127-0.22-0.199-0.475-0.199-0.747c0-0.009,0.002-0.017,0.003-0.025
				c-1.728-0.128-3.647-0.456-5.771-0.987c-1.109-0.277-2.121-0.606-3.084-0.961c-0.02,0.469-0.066,1.315-0.168,2.47
				c2.74,2.573,5.779,4.824,9.055,6.667C428.203,167.262,428.157,164.992,428.045,164.271z"/>
		</g>
		<g>
			<path style="fill:#FFFFFF;" d="M54.554,298.814c-1.386,1.737-1.727,3.697-1.771,5.036c5.009-2.285,9.717-2.169,9.806-2.172
				c0.828,0.03,1.474,0.727,1.444,1.554c-0.031,0.828-0.722,1.498-1.553,1.444c-0.568-0.022-13.388-0.28-17.402,11.987
				c-2.948,9.009-3.505,14.974-1.655,17.728c0.48,0.716,1.175,1.205,2.052,1.524c-0.403-2.105-0.205-3.762-0.189-3.88
				c0.107-0.822,0.859-1.402,1.681-1.294c0.82,0.106,1.399,0.856,1.295,1.676c-0.005,0.038-0.441,3.832,1.773,6.607
				c1.003,1.257,2.426,2.135,4.237,2.632c-1.319-4.378-0.146-9.642-0.084-9.911c0.185-0.807,0.99-1.31,1.796-1.126
				c0.807,0.185,1.312,0.989,1.128,1.796c-0.429,1.884-1.104,7.392,0.89,10.228c0.746,1.061,1.803,1.66,3.229,1.834
				c3.484,0.424,5.968,0.086,7.182-0.977c0.743-0.651,1.097-1.643,1.113-3.12c0.032-2.871,0.4-12.631,3.816-17.673
				c0.464-0.686,1.397-0.866,2.083-0.401c0.686,0.465,0.865,1.397,0.4,2.083c-2.08,3.071-3.02,9.191-3.245,14.186
				c3.01-0.75,9.071-3.096,10.784-10.028c2.405-9.736-3.313-21.06-9.682-23.502c-0.773-0.296-1.16-1.164-0.863-1.938
				c0.296-0.772,1.162-1.163,1.938-0.863c1.609,0.617,3.118,1.611,4.49,2.883c-0.006-1.819-0.367-4.764-2.356-7.042
				c-2.172-2.486-5.816-3.673-10.826-3.516C60.537,294.741,56.664,296.169,54.554,298.814z"/>
			<path style="fill:#6F3919;" d="M78.406,246.532C64,269.023,62.488,289.112,62.727,291.575c0.041,0.082,0.065,0.172,0.091,0.262
				c1.003-0.13,2.041-0.229,3.153-0.264c2.355-0.071,4.462,0.135,6.333,0.595c0.316-3.615,2.483-21.264,15.598-41.719
				c10.46-16.315,27.21-22.067,31.327-23.272c0.432-2.229,1.247-8.563-2.335-12.709C112.409,216.269,91.953,225.381,78.406,246.532z
				"/>
			<path style="fill:#371F0E;" d="M116.796,211.293c-1.018,0.354-25.122,8.963-40.917,33.622
				c-14.829,23.152-16.62,43.763-16.016,47.473c-3.364,0.863-5.948,2.392-7.689,4.597c-2.613,3.309-2.493,7.075-2.331,8.493
				c-3.103,2.077-5.994,5.288-7.618,10.251c-3.342,10.212-3.753,16.673-1.294,20.334c1.23,1.832,3.149,2.896,5.689,3.185
				c0.289,0.55,0.629,1.095,1.045,1.62c1.885,2.38,4.714,3.779,8.404,4.163c1.205,1.368,2.814,2.185,4.798,2.426
				c1.105,0.134,2.127,0.202,3.069,0.202c2.875-0.001,5.001-0.63,6.452-1.9c1.147-1.005,1.815-2.355,2.042-4.089
				c3.202-0.691,11.605-3.344,13.843-12.402c1.755-7.101-0.338-15.576-4.503-21.274c0.156-0.192,0.282-0.411,0.327-0.672
				c0.046-0.266,1.083-6.562-2.929-11.183c-1.073-1.236-2.395-2.217-3.95-2.954c0.012-0.065,0.026-0.129,0.03-0.196
				c0.011-0.19,1.22-19.151,15.177-40.92c11.076-17.275,30.236-22.181,30.428-22.229c0.527-0.13,0.943-0.534,1.087-1.058
				c0.122-0.444,2.92-10.942-3.621-17.159C117.916,211.236,117.326,211.111,116.796,211.293z M79.246,305.129
				c-1.372-1.272-2.881-2.266-4.49-2.883c-0.776-0.3-1.642,0.091-1.938,0.863c-0.297,0.773,0.09,1.642,0.863,1.938
				c6.369,2.441,12.087,13.766,9.682,23.502c-1.713,6.932-7.774,9.278-10.784,10.028c0.226-4.995,1.166-11.115,3.245-14.186
				c0.465-0.685,0.286-1.618-0.4-2.083c-0.686-0.465-1.619-0.285-2.083,0.401c-3.415,5.042-3.784,14.802-3.816,17.673
				c-0.016,1.478-0.37,2.469-1.113,3.12c-1.214,1.063-3.698,1.4-7.182,0.977c-1.427-0.174-2.483-0.773-3.229-1.834
				c-1.995-2.837-1.319-8.345-0.89-10.228c0.184-0.807-0.321-1.611-1.128-1.796c-0.806-0.184-1.611,0.319-1.796,1.126
				c-0.062,0.27-1.235,5.534,0.084,9.911c-1.811-0.497-3.234-1.375-4.237-2.632c-2.215-2.775-1.778-6.569-1.773-6.607
				c0.104-0.819-0.475-1.569-1.295-1.676c-0.822-0.108-1.574,0.472-1.681,1.294c-0.015,0.117-0.214,1.774,0.189,3.88
				c-0.876-0.319-1.571-0.809-2.052-1.524c-1.851-2.755-1.293-8.72,1.655-17.728c4.015-12.268,16.834-12.01,17.402-11.987
				c0.831,0.054,1.522-0.616,1.553-1.444c0.03-0.827-0.616-1.523-1.444-1.554c-0.089,0.003-4.797-0.113-9.806,2.172
				c0.045-1.339,0.386-3.299,1.771-5.036c2.11-2.645,5.982-4.072,11.509-4.242c5.01-0.157,8.654,1.029,10.826,3.516
				C78.878,300.365,79.24,303.31,79.246,305.129z M119.23,227.177c-4.117,1.205-20.867,6.957-31.327,23.272
				c-13.115,20.455-15.281,38.104-15.598,41.719c-1.871-0.46-3.978-0.666-6.333-0.595c-1.112,0.034-2.15,0.134-3.153,0.264
				c-0.026-0.09-0.05-0.18-0.091-0.262c-0.239-2.463,1.273-22.552,15.679-45.043c13.547-21.151,34.003-30.264,38.489-32.064
				C120.476,218.613,119.662,224.947,119.23,227.177z"/>
			<path style="fill:#371F0E;" d="M74.146,281.854c-3.953,1.825-7.737,4.014-11.291,6.529c-0.156,1.626-0.174,2.726-0.129,3.193
				c0.041,0.082,0.065,0.172,0.091,0.262c1.003-0.13,2.041-0.229,3.153-0.264c2.355-0.071,4.462,0.135,6.333,0.595
				C72.431,290.727,72.854,287.048,74.146,281.854z"/>
			<path style="fill:#D0D9D3;" d="M79.371,335.142c1.738-1.52,3.262-3.637,3.992-6.593c2.405-9.736-3.313-21.06-9.682-23.502
				c-0.773-0.296-1.16-1.164-0.863-1.938c0.296-0.772,1.162-1.163,1.938-0.863c1.609,0.617,3.118,1.611,4.49,2.883
				c-0.006-1.819-0.367-4.764-2.356-7.042c-2.172-2.486-5.816-3.673-10.826-3.516c-1.134,0.035-2.181,0.136-3.175,0.277
				c2.081,0.604,4.036,1.642,5.658,3.08c0.311,0.276,0.628,0.599,0.681,1.011c0.052,0.405-0.165,0.791-0.375,1.142
				c-0.568,0.949-2.438,2.969-1.963,4.201c0.222,0.577,1.904,1.157,2.441,1.531c1.551,1.078,2.836,2.674,4.089,4.069
				c1.893,2.106,3.804,4.238,5.147,6.73c2.892,5.367,2.842,11.952,1.061,17.783C79.55,334.647,79.454,334.892,79.371,335.142z"/>
			<g>
				<path style="fill:#D0D9D3;" d="M74.415,332.07c-0.366-1.749-0.15-3.52,0.215-5.285c-1.257,3.287-1.874,7.881-2.051,11.792
					c1.057-0.264,2.492-0.731,3.98-1.517C75.729,335.432,74.788,333.849,74.415,332.07z"/>
				<path style="fill:#D0D9D3;" d="M56.342,328.526c-0.19-0.877-1.129-1.66-1.958-1.317c-0.369,0.153-0.629,0.485-0.86,0.811
					c-2.096,2.955-3.286,6.542-3.373,10.164c-0.007,0.291-0.021,0.598-0.072,0.889c1,1.229,2.405,2.094,4.191,2.584
					c-1.319-4.378-0.146-9.642-0.084-9.911c0.185-0.807,0.99-1.31,1.796-1.126c0.047,0.011,0.089,0.03,0.133,0.045
					C56.321,329.959,56.496,329.236,56.342,328.526z"/>
				<path style="fill:#D0D9D3;" d="M43.293,334.167c0.044,0.074,0.082,0.155,0.129,0.225c0.48,0.716,1.175,1.205,2.052,1.524
					c-0.403-2.105-0.205-3.762-0.189-3.88c0.101-0.778,0.781-1.331,1.551-1.298c0.173,0.008,0.103-2.028-0.183-2.257
					c-1.281-1.029-2.569,2.089-2.845,2.925C43.514,332.299,43.37,333.228,43.293,334.167z"/>
				<path style="fill:#D0D9D3;" d="M69.525,340.382c0.032-2.871,0.4-12.631,3.816-17.673c0.464-0.686,1.397-0.866,2.083-0.401
					c0.047,0.032,0.086,0.071,0.128,0.107c0.028-0.433-0.008-0.86-0.2-1.245c-0.507-1.017-1.909-1.314-2.975-0.919
					c-1.066,0.395-1.855,1.298-2.536,2.208c-3.049,4.074-4.896,9.036-5.252,14.112c-0.149,2.125-0.057,4.331-0.886,6.293
					c-0.271,0.64-0.691,1.236-1.193,1.739c2.815,0.201,4.843-0.174,5.902-1.101C69.156,342.851,69.509,341.859,69.525,340.382z"/>
			</g>
		</g>
		<path style="fill:#F83832;" d="M231.503,199.52c8.303,6.265,18.193,9.081,29.551,8.378c11.819-0.734,21.208-4.423,27.978-10.956
			C263.19,180.209,236.763,196.016,231.503,199.52z"/>
		<path style="fill:#371F0E;" d="M220.847,188.394c2.515,3.527,5.258,6.579,8.221,9.158c3.326-2.339,33.04-22.051,62.07-2.812
			c0.015-0.018,0.032-0.034,0.048-0.052c8.851-10.239,9.783-23.298,9.772-28.468c-6.415,5.288-19.234,12.96-40.621,14.315
			c-2.426,0.153-4.763,0.226-7.006,0.226c-22.105,0-35.444-6.984-41.942-11.708C212.555,172.871,215.403,180.76,220.847,188.394z"/>
		<path style="fill:#7DA962;" d="M143.069,225.195c0.479-0.249,1.057-0.22,1.51,0.072c0.454,0.294,0.714,0.81,0.681,1.35
			c-0.011,0.184-0.992,18.408,9.971,23.146c10.876,4.704,24.66-12.794,24.798-12.971c0.379-0.484,1.013-0.691,1.605-0.518
			c0.59,0.172,1.016,0.688,1.073,1.301c0.076,0.815,2.058,20.003,18.545,22.525c16.633,2.536,28.536-19.149,28.653-19.369
			c0.291-0.539,0.881-0.838,1.489-0.779c0.609,0.069,1.115,0.502,1.278,1.093c0.012,0.042,1.206,4.298,4.136,8.646
			c3.821,5.67,8.659,8.834,14.379,9.404c5.556,0.552,9.91-2.09,12.962-7.851c2.383-4.497,3.033-9.208,3.04-9.255
			c0.078-0.587,0.494-1.072,1.061-1.24c0.565-0.166,1.181,0.015,1.565,0.464c0.172,0.199,17.314,19.985,33.458,17.887
			c15.702-2.048,17.012-20.446,17.06-21.229c0.037-0.602,0.431-1.124,1-1.323c0.569-0.201,1.203-0.04,1.608,0.406
			c0.161,0.179,16.279,17.807,28.654,16.18c11.912-1.561,13.181-23.236,13.192-23.455c0.029-0.563,0.371-1.061,0.885-1.291
			c0.513-0.229,1.113-0.152,1.552,0.199c0.027,0.021,2.907,2.295,6.884,3.456c5.117,1.496,9.627,0.52,13.398-2.9
			c3.676-3.333,5.229-8.469,4.373-14.461c-1.084-7.592-5.909-14.799-12.161-18.328c-5.183,11.038-16.94,18.462-35.624,22.561
			c-20.331,4.461-46.284,4.401-69.188,4.349c-2.508-0.006-4.991-0.012-7.44-0.012c-3.126,0-6.467,0.011-9.98,0.021
			c-3.874,0.012-7.971,0.024-12.231,0.024c-23.244,0-51.39-0.377-75.179-3.296c-31.07-3.813-48.138-11.126-51.938-22.299
			c-2.837,1.339-12.218,6.268-15.544,14.289c-1.663,4.012-1.572,8.289,0.271,12.714c1.41,3.386,3.744,5.629,7.134,6.858
			C122.154,235.97,142.861,225.303,143.069,225.195z"/>
		<path style="fill:#F8BF6D;" d="M379.925,289.021c-12.711,8.502-54.155,14.387-123.183,17.49
			c-6.617,0.298-13.293,0.439-19.94,0.439c-60.442,0.002-119.324-11.625-126.521-22.761c-1.479,1.281-5.539,6.024-4.807,19.082
			c0.757,13.503,6.04,30.725,26.903,36.093c22.23,5.72,66.86,12.191,119.448,11.557c57.313-0.678,111.564-7.574,126.191-16.042
			c6.172-3.573,10.521-11.479,11.935-21.693c1.515-10.947-0.736-21.674-5.753-28.097
			C383.034,286.549,381.631,287.879,379.925,289.021z"/>
		<path style="fill:#F8BF6D;" d="M257.476,220.273c3.518-0.011,6.861-0.021,9.99-0.021c2.45,0,4.936,0.006,7.446,0.012
			c22.747,0.058,48.528,0.111,68.539-4.279c22.426-4.92,34.228-14.71,36.082-29.931c1.79-14.697-5.957-33.426-20.723-50.101
			c-12.23-13.81-28.453-25.505-46.915-33.821c-21.245-9.57-44.566-14.423-69.315-14.423c-37.802,0-74.58,15.515-98.38,41.502
			c-17.366,18.961-25.829,41.912-23.83,64.624C122.733,220.688,210.382,220.408,257.476,220.273z M245.611,158.699
			c0.274-0.263,6.771-6.406,12.957-5.946c2.424,0.186,4.454,1.331,6.036,3.399c3.19,4.172,2.986,7.664,2.252,9.859
			c-1.407,4.214-5.69,6.768-8.929,7.674c-0.135,0.038-0.271,0.056-0.405,0.056c-0.655,0-1.258-0.434-1.443-1.096
			c-0.224-0.798,0.242-1.626,1.04-1.849c2.532-0.709,5.856-2.636,6.892-5.736c0.733-2.191,0.13-4.575-1.79-7.086
			c-1.056-1.381-2.326-2.11-3.884-2.23c-4.023-0.313-9.055,3.591-10.65,5.121c-0.599,0.571-1.548,0.554-2.121-0.045
			C244.993,160.222,245.013,159.273,245.611,158.699z M201.674,166.895c5.26-3.312,5.196-8.216,5.191-8.424
			c-0.021-0.824,0.627-1.516,1.451-1.542c0.814-0.063,1.515,0.612,1.547,1.436c0.006,0.149,0.048,2.13-0.975,4.589
			c1.134,1.221,16.38,16.803,51.258,14.587c16.213-1.027,27.183-5.924,33.53-9.85c6.238-3.859,9.35-7.551,9.895-8.232
			c-1.897-2.622-2.405-5.102-2.44-5.283c-0.157-0.814,0.374-1.601,1.188-1.758c0.811-0.161,1.597,0.372,1.757,1.184
			c0.058,0.281,1.344,6.217,7.838,8.381c0.785,0.262,1.21,1.111,0.948,1.897c-0.209,0.628-0.795,1.025-1.423,1.025
			c-0.157,0-0.316-0.024-0.475-0.077c-2.26-0.753-4.001-1.878-5.36-3.113c-0.367,0.437-0.948,1.09-1.755,1.893
			c0.007,0.042,0.02,0.082,0.023,0.125c0.589,7.068-0.942,21.954-10.418,32.915c-7.419,8.583-18.257,13.375-32.215,14.242
			c-1.19,0.074-2.362,0.11-3.503,0.11c-39.592,0-49.829-43.19-49.93-43.64c-0.087-0.385-0.014-0.768,0.171-1.084
			c-0.239-0.221-0.452-0.423-0.63-0.599c-0.954,1.305-2.259,2.611-4.075,3.755c-0.248,0.156-0.525,0.23-0.798,0.23
			c-0.498,0-0.986-0.248-1.271-0.701C200.762,168.263,200.973,167.336,201.674,166.895z"/>
		<path style="fill:#AF5531;" d="M255.149,289.969c-0.705,0-1.393-0.011-2.068-0.033c-23.939-0.795-72.919-15.774-92.866-22.179
			c-14.898-4.783-35.382-11.824-49.57-17.499c-0.858,5.424-3.084,22.893,2.053,32.145c5.628,10.139,75.219,24.189,143.909,21.111
			c68.473-3.08,109.401-8.795,121.65-16.988c1.721-1.151,3.087-2.55,4.174-4.116c0.015-0.371,0.16-0.738,0.447-1.018
			c0.098-0.095,0.216-0.15,0.331-0.213c4.499-7.842,2.897-19.104,1.94-25.804c-0.103-0.722-0.198-1.391-0.279-2.007
			c-12.378,5.402-30.31,12.105-44.608,16.948C318.311,277.751,278.655,289.969,255.149,289.969z"/>
		<path style="fill:#F8DE45;" d="M388.429,232.275c-4.357,3.389-9.602,4.298-15.263,2.619c-2.297-0.683-4.245-1.669-5.623-2.487
			c-0.769,6.339-3.854,22.168-15.56,23.702c-11.144,1.465-24.058-9.931-29.107-14.911c-1.181,6.095-5.314,19.064-19.216,20.878
			c-0.954,0.125-1.91,0.184-2.861,0.184c-13.458,0.002-26.319-11.807-31.214-16.866c-1.849,7.53-7.321,17.819-18.697,16.687
			c-11.993-1.193-17.814-11.768-20.019-17.149c-3.749,5.762-13.484,18.382-26.827,18.384c-1.06,0-2.141-0.08-3.245-0.249
			c-14.39-2.201-19.086-15.648-20.508-21.956c-4.619,5.098-15.979,15.846-26.249,11.407c-10.314-4.458-11.695-17.931-11.808-23.578
			c-5.662,2.632-20.812,8.857-31.771,5.904c-0.153,0.139-0.335,0.251-0.545,0.319c-3.718,1.204-9.869,3.732-12.35,5.935
			c10.552,7.116,118.209,44.599,155.616,45.841c22.429,0.736,62.857-11.628,84.955-19.07c32.23-10.854,56.44-21.481,58.618-23.878
			C397.162,242.542,393.344,237.201,388.429,232.275z"/>
		<path style="fill:#371F0E;" d="M202.475,169.664c0.273,0,0.55-0.074,0.798-0.23c1.816-1.144,3.121-2.45,4.075-3.755
			c0.178,0.176,0.391,0.379,0.63,0.599c-0.185,0.316-0.258,0.699-0.171,1.084c0.102,0.449,10.338,43.64,49.93,43.64
			c1.141,0,2.313-0.036,3.503-0.11c13.958-0.867,24.796-5.659,32.215-14.242c9.476-10.961,11.007-25.847,10.418-32.915
			c-0.004-0.043-0.016-0.083-0.023-0.125c0.807-0.803,1.388-1.456,1.755-1.893c1.359,1.236,3.1,2.36,5.36,3.113
			c0.158,0.053,0.317,0.077,0.475,0.077c0.628,0,1.214-0.397,1.423-1.025c0.262-0.786-0.163-1.636-0.948-1.897
			c-6.494-2.164-7.78-8.1-7.838-8.381c-0.16-0.811-0.945-1.345-1.757-1.184c-0.814,0.157-1.345,0.944-1.188,1.758
			c0.035,0.181,0.543,2.66,2.44,5.283c-0.545,0.681-3.657,4.373-9.895,8.232c-6.348,3.926-17.317,8.822-33.53,9.85
			c-34.879,2.215-50.124-13.367-51.258-14.587c1.023-2.458,0.98-4.44,0.975-4.589c-0.032-0.824-0.733-1.499-1.547-1.436
			c-0.824,0.026-1.473,0.718-1.451,1.542c0.005,0.208,0.07,5.112-5.191,8.424c-0.701,0.441-0.912,1.368-0.47,2.068
			C201.489,169.416,201.976,169.664,202.475,169.664z M261.055,207.898c-11.359,0.703-21.248-2.113-29.551-8.378
			c5.26-3.504,31.687-19.311,57.53-2.578C282.262,203.475,272.874,207.163,261.055,207.898z M260.336,180.535
			c21.387-1.356,34.206-9.028,40.621-14.315c0.011,5.17-0.921,18.229-9.772,28.468c-0.016,0.018-0.032,0.034-0.048,0.052
			c-29.03-19.239-58.744,0.473-62.07,2.812c-2.962-2.58-5.706-5.631-8.221-9.158c-5.444-7.634-8.292-15.523-9.46-19.341
			c6.498,4.724,19.837,11.708,41.942,11.708C255.573,180.761,257.91,180.689,260.336,180.535z"/>
		<path style="fill:#371F0E;" d="M390.636,230.234c3.576-3.967,5.11-9.691,4.213-15.977c-1.248-8.745-6.698-16.749-13.989-20.694
			c0.793-2.247,1.346-4.627,1.653-7.147c1.92-15.769-5.899-34.887-21.455-52.452c-12.51-14.125-29.083-26.079-47.929-34.568
			c-21.636-9.746-45.371-14.688-70.548-14.688c-38.629,0-76.233,15.879-100.593,42.476c-17.941,19.589-26.679,43.353-24.606,66.914
			c0.018,0.206,0.052,0.408,0.078,0.612c-2.21,0.97-13.575,6.353-17.632,16.118c-1.985,4.78-1.896,9.837,0.267,15.03
			c1.353,3.248,3.491,5.7,6.352,7.341c-3.651,1.358-10.008,4.045-12.071,6.964c-0.376,0.531-0.419,1.212-0.116,1.822
			c0.69,1.389,5.947,3.988,13.529,7.115c-0.756,4.425-3.23,21.404,1.143,32.336c-1.716,1.207-7.329,6.384-6.453,22.002
			c1.149,20.5,11.502,34.29,29.15,38.831c21.4,5.506,63.344,11.692,113.147,11.692c2.343,0,4.707-0.014,7.083-0.042
			c58.709-0.694,112.397-7.611,127.66-16.446c6.977-4.039,11.862-12.742,13.402-23.878c1.68-12.136-1.052-24.133-6.974-31.108
			c4.861-8.66,3.181-20.46,2.171-27.536c-0.155-1.086-0.291-2.047-0.384-2.856c6.629-3.001,11.145-5.48,11.735-6.815
			C401.139,241.502,394.547,234.14,390.636,230.234z M144.2,129.21c23.801-25.987,60.579-41.502,98.38-41.502
			c24.749,0,48.07,4.853,69.315,14.423c18.462,8.316,34.685,20.012,46.915,33.821c14.766,16.675,22.513,35.403,20.723,50.101
			c-1.854,15.221-13.656,25.011-36.082,29.931c-20.011,4.391-45.792,4.337-68.539,4.279c-2.511-0.006-4.996-0.012-7.446-0.012
			c-3.129,0-6.473,0.011-9.99,0.021c-47.095,0.136-134.743,0.415-137.106-26.439C118.372,171.122,126.835,148.171,144.2,129.21z
			 M102.865,224.704c-1.843-4.425-1.934-8.702-0.271-12.714c3.325-8.021,12.707-12.95,15.544-14.289
			c3.8,11.174,20.868,18.487,51.938,22.299c23.789,2.919,51.935,3.296,75.179,3.296c4.26,0,8.356-0.013,12.231-0.024
			c3.514-0.011,6.854-0.021,9.98-0.021c2.448,0,4.932,0.006,7.44,0.012c22.904,0.053,48.857,0.112,69.188-4.349
			c18.683-4.099,30.441-11.523,35.624-22.561c6.251,3.529,11.077,10.736,12.161,18.328c0.855,5.992-0.697,11.128-4.373,14.461
			c-3.771,3.42-8.281,4.396-13.398,2.9c-3.977-1.161-6.856-3.434-6.884-3.456c-0.438-0.352-1.039-0.428-1.552-0.199
			c-0.514,0.23-0.855,0.729-0.885,1.291c-0.012,0.219-1.28,21.895-13.192,23.455c-12.375,1.627-28.493-16.001-28.654-16.18
			c-0.405-0.446-1.039-0.608-1.608-0.406c-0.569,0.199-0.963,0.722-1,1.323c-0.048,0.783-1.357,19.182-17.06,21.229
			c-16.144,2.099-33.286-17.688-33.458-17.887c-0.384-0.449-0.999-0.63-1.565-0.464c-0.567,0.168-0.983,0.653-1.061,1.24
			c-0.007,0.047-0.657,4.758-3.04,9.255c-3.053,5.761-7.407,8.402-12.962,7.851c-5.72-0.57-10.558-3.734-14.379-9.404
			c-2.93-4.349-4.124-8.604-4.136-8.646c-0.163-0.591-0.669-1.023-1.278-1.093c-0.608-0.059-1.198,0.24-1.489,0.779
			c-0.118,0.22-12.02,21.905-28.653,19.369c-16.488-2.522-18.469-21.71-18.545-22.525c-0.057-0.613-0.483-1.129-1.073-1.301
			c-0.591-0.174-1.226,0.033-1.605,0.518c-0.138,0.177-13.922,17.675-24.798,12.971c-10.962-4.738-9.982-22.963-9.971-23.146
			c0.033-0.539-0.227-1.056-0.681-1.35c-0.453-0.292-1.031-0.321-1.51-0.072c-0.208,0.108-20.915,10.775-33.069,6.368
			C106.609,230.333,104.275,228.09,102.865,224.704z M389.951,313.185c-1.413,10.214-5.763,18.12-11.935,21.693
			c-14.627,8.468-68.878,15.364-126.191,16.042c-52.587,0.635-97.218-5.837-119.448-11.557
			c-20.863-5.367-26.145-22.59-26.903-36.093c-0.732-13.058,3.328-17.801,4.807-19.082c7.197,11.136,66.079,22.763,126.521,22.761
			c6.647,0,13.323-0.141,19.94-0.439c69.027-3.103,110.472-8.988,123.183-17.49c1.706-1.141,3.11-2.472,4.273-3.933
			C389.215,291.511,391.466,302.238,389.951,313.185z M385.148,255.376c0.957,6.7,2.559,17.962-1.94,25.804
			c-0.114,0.063-0.233,0.117-0.331,0.213c-0.288,0.28-0.433,0.647-0.447,1.018c-1.087,1.565-2.453,2.965-4.174,4.116
			c-12.248,8.193-53.177,13.908-121.65,16.988c-68.69,3.078-138.281-10.973-143.909-21.111c-5.137-9.251-2.911-26.72-2.053-32.145
			c14.188,5.675,34.672,12.716,49.57,17.499c19.947,6.404,68.926,21.384,92.866,22.179c0.675,0.023,1.363,0.033,2.068,0.033
			c23.506,0,63.162-12.218,85.112-19.652c14.298-4.843,32.23-11.545,44.608-16.948C384.95,253.985,385.045,254.654,385.148,255.376z
			 M396.754,243.99c-2.178,2.396-26.388,13.023-58.618,23.878c-22.098,7.442-62.525,19.807-84.955,19.07
			c-37.406-1.242-145.064-38.725-155.616-45.841c2.481-2.203,8.632-4.731,12.35-5.935c0.21-0.068,0.392-0.18,0.545-0.319
			c10.959,2.954,26.109-3.271,31.771-5.904c0.113,5.647,1.494,19.12,11.808,23.578c10.27,4.438,21.63-6.31,26.249-11.407
			c1.422,6.309,6.118,19.755,20.508,21.956c1.104,0.169,2.185,0.249,3.245,0.249c13.343-0.002,23.079-12.622,26.827-18.384
			c2.205,5.381,8.026,15.956,20.019,17.149c11.376,1.132,16.849-9.157,18.697-16.687c4.895,5.06,17.756,16.868,31.214,16.866
			c0.951,0,1.907-0.059,2.861-0.184c13.902-1.814,18.035-14.783,19.216-20.878c5.05,4.98,17.964,16.376,29.107,14.911
			c11.705-1.534,14.791-17.363,15.56-23.702c1.378,0.818,3.326,1.805,5.623,2.487c5.66,1.68,10.906,0.77,15.263-2.619
			C393.344,237.201,397.162,242.542,396.754,243.99z"/>
		<g>
			<g>
				<g>
					
						<ellipse transform="matrix(0.9889 -0.1486 0.1486 0.9889 -18.143 35.3516)" style="fill:#371F0E;" cx="227.522" cy="139.099" rx="13.944" ry="19.686"/>
				</g>
			</g>
			<g>
				<g>
					
						<ellipse transform="matrix(0.9889 -0.1486 0.1486 0.9889 -17.0353 43.1739)" style="fill:#371F0E;" cx="280.428" cy="135.597" rx="13.944" ry="19.685"/>
				</g>
			</g>
			<g>
				<g>
					<path style="fill:#FFFFFF;" d="M224.031,127.122c0.153,3.462-2.529,6.393-5.991,6.546c-3.462,0.153-6.393-2.529-6.546-5.991
						c-0.153-3.462,2.529-6.393,5.991-6.546C220.947,120.977,223.877,123.66,224.031,127.122z"/>
				</g>
			</g>
			<g>
				<g>
					<path style="fill:#FFFFFF;" d="M275.874,123.317c0.153,3.462-2.529,6.393-5.991,6.546c-3.462,0.153-6.393-2.529-6.546-5.991
						c-0.153-3.462,2.529-6.393,5.991-6.546C272.79,117.173,275.721,119.855,275.874,123.317z"/>
				</g>
			</g>
		</g>
		<g>
			<path style="fill:#371F0E;" d="M216.73,111.803c0.006-0.001,0.048-0.033,0.118-0.092c-0.021,0.015-0.048,0.034-0.063,0.045
				C216.766,111.771,216.749,111.788,216.73,111.803z"/>
			<path style="fill:#371F0E;" d="M226.674,106.336c-0.016-0.24-0.05-0.477-0.103-0.711c0.025,0.182,0.049,0.364,0.074,0.546
				c-0.095-0.696-0.16-1.154-0.486-1.771c-0.499-0.945-1.69-1.59-2.695-1.869c-1.257-0.349-2.796-0.17-4.04,0.113
				c-2.035,0.462-4.067,1.452-5.643,2.831c-0.779,0.681-1.408,1.559-1.995,2.403c-0.65,0.936-1.228,1.84-1.642,2.908
				c-0.38,0.981,0.191,2.213,0.956,2.804c0.921,0.712,1.939,0.643,2.963,0.208c0.906-0.384,1.626-1.145,2.378-1.77
				c0.09-0.075,0.19-0.149,0.288-0.225c-0.004,0,0.014-0.015,0.055-0.047c0.064-0.051,0.13-0.102,0.185-0.156
				c-0.047,0.046-0.085,0.079-0.122,0.111c0.03-0.022,0.045-0.034,0.089-0.065c0.299-0.206,0.612-0.38,0.925-0.563
				c0.284-0.165,0.557-0.342,0.849-0.494c0.035-0.018,0.109-0.062,0.189-0.108c0.072-0.027,0.143-0.056,0.215-0.082
				c0.544-0.195,1.104-0.328,1.671-0.432c0.926-0.071,1.906-0.07,2.771-0.308c1.036-0.285,2.06-0.771,2.603-1.76
				c0.081-0.148,0.149-0.303,0.203-0.463c0.237-0.567,0.221-0.523-0.046,0.132C226.535,107.192,226.674,106.777,226.674,106.336z"/>
		</g>
		<path style="fill:#371F0E;" d="M281.559,100.565c-1.237-0.577-2.417-0.775-3.78-0.877c-2.064-0.156-4.023,0.435-5.869,1.306
			c-0.888,0.419-1.659,0.998-2.295,1.748c-0.598,0.706-1.169,1.432-1.106,2.424c0.058,0.909,0.403,1.57,1.144,2.141
			c-0.903-0.696-0.07,0.004,0.217,0.152c0.684,0.351,1.368,0.446,2.129,0.279c0.364-0.08,0.723-0.165,1.092-0.219l-0.834,0.112
			c0.782-0.102,1.54-0.277,2.31-0.414c0.864-0.074,1.748-0.059,2.615,0.021c0.643,0.118,1.274,0.283,1.919,0.397
			c0.888,0.157,1.77,0.176,2.644-0.081c1.413-0.415,2.444-1.558,2.472-3.076C284.25,102.802,283.031,101.251,281.559,100.565z"/>
		<path style="fill:#F87B42;" d="M292.837,214.262c-32.148,1.705-64.912,2.408-95.949-6.146
			c-20.406-5.624-41.648-17.411-47.596-37.726c-5.636-19.251,4.301-39.454,15.537-56.071c1.247-1.845,2.535-3.68,3.883-5.465
			c-9.116,5.762-17.398,12.587-24.513,20.356c-17.366,18.961-25.829,41.912-23.83,64.624c2.363,26.854,90.011,26.574,137.106,26.439
			c3.518-0.011,6.861-0.021,9.99-0.021c2.45,0,4.936,0.006,7.446,0.012c22.747,0.058,48.528,0.111,68.539-4.279
			c14.501-3.181,24.555-8.403,30.354-15.809C348.802,210.031,320.075,212.818,292.837,214.262z"/>
		<path style="fill:#F87B42;" d="M387.708,291.357c-0.945-2.36-2.117-4.485-3.51-6.269c-1.164,1.461-2.567,2.791-4.273,3.933
			c-12.711,8.502-54.155,14.387-123.183,17.49c-6.617,0.298-13.293,0.439-19.94,0.439c-60.442,0.002-119.324-11.625-126.521-22.761
			c-1.479,1.281-5.539,6.024-4.807,19.082c0.757,13.503,6.04,30.725,26.903,36.093c11.997,3.087,30.525,6.39,53.3,8.68
			c-7.17-4.992-11.565-10.315-11.956-15.393c-1.45-18.846,53.637-17.396,137.235-22.711
			C365.293,306.484,382.47,298.742,387.708,291.357z"/>
		<path style="fill:#F8F0B0;" d="M311.896,102.131c-21.245-9.57-44.566-14.423-69.315-14.423c-15.307,0-30.445,2.545-44.623,7.298
			c24.878-5.345,74.537-11.03,118.636,14.235c55.161,31.602,64.202,62.692,59.343,87.786c1.905-3.284,3.105-6.937,3.596-10.975
			c1.79-14.697-5.957-33.426-20.723-50.101C346.581,122.143,330.358,110.448,311.896,102.131z"/>
		<path style="fill:#F8F0B0;" d="M375.869,329.268c-12.466,11.449-95.245,19.48-143.947,21.558
			c6.483,0.138,13.125,0.176,19.903,0.094c57.313-0.678,111.564-7.574,126.191-16.042c6.172-3.573,10.521-11.479,11.935-21.693
			c0.672-4.855,0.6-9.665-0.123-14.077C389.061,306.923,386.17,319.808,375.869,329.268z"/>
		<path style="fill:#F8F0B0;" d="M365.769,327.298c-0.067-0.238-0.187-0.445-0.361-0.62c-0.203-0.23-0.443-0.414-0.728-0.534
			c-0.401-0.169-0.85-0.242-1.282-0.184c-0.425,0.057-0.805,0.157-1.2,0.32c-0.286,0.118-0.574,0.235-0.853,0.37
			c-0.284,0.138-0.528,0.344-0.758,0.559c-0.114,0.107-0.224,0.217-0.331,0.332c-0.08,0.086-0.146,0.173-0.219,0.268
			c-0.161,0.208-0.147,0.198-0.25,0.44c-0.106,0.252-0.135,0.511-0.163,0.781c0.019,0.143,0.038,0.287,0.058,0.43
			c0.05,0.211,0.147,0.394,0.29,0.551c0.201,0.26,0.507,0.516,0.841,0.58c0.421,0.08,0.822,0.122,1.231-0.035
			c0.162-0.062,0.326-0.118,0.492-0.167c0.453-0.135,0.861-0.379,1.292-0.57c0.209-0.085,0.418-0.17,0.627-0.258
			c-0.154,0.065-0.308,0.13-0.462,0.195c0.047-0.019,0.093-0.038,0.14-0.057c0.163-0.064,0.325-0.132,0.486-0.204
			c0.129-0.1,0.258-0.199,0.388-0.3c0.067-0.054,0.135-0.109,0.2-0.165c0.302-0.262,0.414-0.63,0.563-0.984
			C365.836,327.796,365.836,327.547,365.769,327.298z"/>
		<path style="fill:#F8F0B0;" d="M371.144,327.413c-0.002-0.01-0.004-0.021-0.006-0.032c-0.049-0.205-0.143-0.383-0.282-0.536
			c-0.111-0.171-0.258-0.307-0.442-0.406c-0.13-0.061-0.262-0.117-0.397-0.166c-0.027-0.01-0.054-0.02-0.081-0.029
			c-0.375-0.12-0.758-0.038-1.13,0.039c-0.376,0.078-0.716,0.311-0.961,0.602c-0.065,0.078-0.131,0.155-0.197,0.233
			c-0.123,0.146-0.247,0.29-0.369,0.437c-0.228,0.274-0.376,0.454-0.467,0.81c-0.01,0.041-0.02,0.082-0.029,0.123
			c-0.02,0.082-0.039,0.163-0.059,0.245c-0.067,0.249-0.067,0.498,0,0.746c0.043,0.183,0.127,0.342,0.251,0.477
			c0.099,0.153,0.23,0.273,0.394,0.362c0.219,0.127,0.455,0.191,0.708,0.192c0.078-0.006,0.155-0.011,0.233-0.017
			c0.039-0.003,0.078-0.006,0.116-0.009c0.37-0.028,0.593-0.068,0.919-0.251c0.163-0.092,0.323-0.192,0.484-0.288l0.258-0.154
			c0.032-0.019,0.065-0.037,0.097-0.057c0.138-0.103,0.274-0.208,0.409-0.315c0.232-0.234,0.392-0.509,0.481-0.826
			c0.085-0.228,0.138-0.393,0.139-0.67C371.215,327.753,371.189,327.578,371.144,327.413z"/>
		<path style="fill:#F8F0B0;" d="M372.468,321.624c-0.299-0.41-0.247-0.359-0.658-0.658c-0.21-0.134-0.438-0.206-0.682-0.217
			c-0.244-0.055-0.488-0.044-0.732,0.033c-0.146,0.061-0.292,0.123-0.438,0.185c-0.276,0.163-0.495,0.383-0.658,0.658
			c-0.029,0.063-0.057,0.125-0.086,0.187c-0.015,0.032-0.029,0.064-0.044,0.096c-0.007,0.015-0.014,0.03-0.021,0.045
			c-0.002,0.004-0.004,0.008-0.005,0.012c-0.057,0.135-0.114,0.271-0.171,0.406c-0.02,0.151-0.04,0.301-0.061,0.452
			c0.016,0.152,0.036,0.304,0.061,0.455c0.011,0.033,0.025,0.066,0.037,0.098c0.006,0.016,0.012,0.032,0.018,0.048
			c0.004,0.009,0.007,0.018,0.01,0.027c0.021,0.055,0.044,0.11,0.069,0.164c0.032,0.114,0.09,0.213,0.173,0.297
			c0.06,0.101,0.141,0.182,0.242,0.242c0.13,0.119,0.283,0.2,0.458,0.241l0.095,0.037c0.016,0.006,0.032,0.013,0.048,0.019
			c0.008,0.003,0.016,0.006,0.024,0.009c0.277,0.099,0.436,0.068,0.69,0.034c0.226-0.01,0.437-0.077,0.632-0.202
			c0.008-0.004,0.015-0.007,0.023-0.01c0.015-0.007,0.03-0.014,0.045-0.021c0.03-0.014,0.061-0.028,0.091-0.042
			c0.06-0.028,0.121-0.056,0.181-0.083c0.214-0.115,0.385-0.272,0.515-0.472c0.162-0.177,0.272-0.385,0.328-0.624
			c0.022-0.163,0.044-0.325,0.065-0.488C372.717,322.219,372.634,321.91,372.468,321.624z"/>
		<path style="fill:#F87B42;" d="M186.063,324.937c-0.036-0.272-0.161-0.466-0.331-0.676c-0.145-0.179-0.333-0.308-0.546-0.398
			c-0.269-0.113-0.537-0.136-0.829-0.17c-0.229-0.026-0.481,0.036-0.705,0.097c-0.118,0.032-0.236,0.068-0.352,0.106
			c-0.35,0.117-0.676,0.272-0.986,0.469c-0.112,0.071-0.222,0.145-0.33,0.223c-0.146,0.105-0.312,0.208-0.424,0.349
			c-0.116,0.146-0.23,0.294-0.342,0.443c-0.155,0.206-0.296,0.421-0.424,0.645c-0.284,0.493-0.225,1.212,0.208,1.609
			c0.17,0.156,0.367,0.271,0.586,0.342c0.344,0.112,0.712,0.017,1.023-0.134c0.043-0.021,0.087-0.039,0.13-0.059
			c0.22-0.083,0.444-0.156,0.661-0.248c0.277-0.117,0.53-0.281,0.802-0.411c0.215-0.103,0.417-0.224,0.629-0.335
			c0.378-0.198,0.795-0.486,1.014-0.87c0.085-0.149,0.156-0.309,0.187-0.478C186.064,325.269,186.087,325.112,186.063,324.937z"/>
		<path style="fill:#F87B42;" d="M192.104,326.398c-0.05-0.21-0.147-0.394-0.29-0.55c-0.044-0.059-0.089-0.117-0.135-0.175
			c-0.111-0.086-0.222-0.172-0.334-0.258c-0.134-0.059-0.27-0.116-0.406-0.171c-0.043-0.017-0.086-0.033-0.129-0.049
			c-0.038-0.013-0.076-0.026-0.114-0.037c-0.09-0.023-0.181-0.036-0.275-0.04c-0.252-0.056-0.504-0.045-0.756,0.034
			c-0.024,0.009-0.047,0.019-0.071,0.028c-0.239,0.098-0.49,0.195-0.721,0.317c-0.027,0.015-0.055,0.029-0.082,0.044
			c-0.264,0.149-0.4,0.293-0.569,0.513c-0.092,0.119-0.157,0.197-0.218,0.32c-0.109,0.221-0.203,0.451-0.292,0.68
			c-0.082,0.306-0.082,0.612,0,0.918c0.082,0.293,0.23,0.546,0.444,0.762c0.435,0.435,1.085,0.607,1.679,0.444
			c0.086-0.024,0.173-0.044,0.261-0.061c0.043-0.008,0.087-0.013,0.129-0.021c0.01-0.002,0.019-0.004,0.029-0.006
			c0.154-0.065,0.308-0.13,0.462-0.195c0.049-0.026,0.11-0.075,0.17-0.123c0.053-0.037,0.105-0.076,0.16-0.11
			c0.022-0.014,0.044-0.027,0.066-0.04c0.144-0.084,0.276-0.186,0.397-0.304c0.099-0.128,0.197-0.256,0.296-0.384
			c0.021-0.041,0.038-0.085,0.058-0.126c0.019-0.04,0.04-0.079,0.061-0.119c0.004-0.007,0.008-0.014,0.011-0.021
			c0.12-0.189,0.186-0.394,0.196-0.613c0.02-0.076,0.03-0.152,0.029-0.229C192.143,326.685,192.123,326.541,192.104,326.398z"/>
		<path style="fill:#F87B42;" d="M196.76,322.107c-0.012-0.268-0.092-0.517-0.239-0.748c-0.105-0.136-0.21-0.271-0.315-0.407
			c-0.251-0.249-0.547-0.422-0.888-0.517c-0.016-0.003-0.031-0.009-0.046-0.013c-0.205-0.068-0.415-0.115-0.638-0.115
			c-0.18,0.024-0.36,0.048-0.54,0.073c-0.344,0.096-0.643,0.27-0.896,0.522c-0.198,0.184-0.338,0.402-0.42,0.654
			c-0.127,0.242-0.185,0.503-0.175,0.783c-0.011,0.28,0.048,0.54,0.175,0.783c0.082,0.252,0.222,0.47,0.42,0.654
			c0.253,0.252,0.552,0.426,0.896,0.522c0.013,0.005,0.026,0.009,0.04,0.012c0.179,0.04,0.559,0.077,0.569,0.078
			c0.027,0.003,0.053,0.004,0.081,0.001c0.277,0.01,0.535-0.047,0.775-0.173c0.249-0.081,0.465-0.22,0.647-0.416
			c0.105-0.136,0.21-0.271,0.315-0.407c0.147-0.231,0.227-0.48,0.239-0.748C196.808,322.464,196.808,322.285,196.76,322.107z"/>
		<path style="fill:#F87B42;" d="M174.712,191.192c-0.062-0.069-0.122-0.139-0.18-0.21c-0.152-0.186-0.355-0.323-0.56-0.447
			c-0.176-0.107-0.339-0.241-0.522-0.336c-0.327-0.17-0.638-0.362-0.936-0.579c-0.19-0.156-0.382-0.308-0.599-0.426
			c-0.183-0.099-0.36-0.208-0.531-0.325c-0.138-0.058-0.275-0.116-0.413-0.174c-0.23-0.072-0.459-0.082-0.689-0.031
			c-0.362,0.049-0.737,0.198-0.992,0.475c-0.203,0.221-0.352,0.477-0.444,0.762c-0.147,0.454-0.018,0.92,0.174,1.331
			c0.194,0.416,0.428,0.863,0.764,1.177c0.348,0.325,0.74,0.616,1.137,0.877c0.393,0.258,0.818,0.487,1.275,0.605
			c0.299,0.077,0.616,0.145,0.923,0.161c0.282,0.014,0.598-0.072,0.876-0.152c0.545-0.156,0.981-0.582,1.132-1.132
			C175.289,192.187,175.103,191.63,174.712,191.192z"/>
		<path style="fill:#F87B42;" d="M181.402,190.379c-0.018-0.042-0.034-0.074-0.058-0.113c-0.18-0.288-0.429-0.532-0.715-0.715
			c-0.079-0.05-0.161-0.097-0.241-0.145c-0.073-0.044-0.146-0.088-0.219-0.132c-0.036-0.022-0.072-0.045-0.11-0.066
			c-0.096-0.045-0.194-0.087-0.294-0.126c-0.093-0.058-0.192-0.096-0.297-0.114c-0.314-0.077-0.644-0.136-0.967-0.118
			c-0.171,0.01-0.342,0.022-0.514,0.028c-0.281,0.01-0.583,0.081-0.828,0.224c-0.111,0.086-0.221,0.171-0.332,0.257
			c-0.16,0.149-0.273,0.324-0.339,0.528c-0.074,0.128-0.112,0.266-0.112,0.414c-0.039,0.146-0.039,0.291,0,0.436
			c0,0.148,0.038,0.286,0.112,0.414c0.065,0.2,0.176,0.372,0.331,0.519c0.017,0.021,0.033,0.043,0.049,0.064
			c0.138,0.181,0.254,0.386,0.426,0.535c0.067,0.058,0.141,0.109,0.212,0.164c0.139,0.108,0.279,0.215,0.418,0.323
			c0.096,0.045,0.194,0.087,0.294,0.126c0.119,0.05,0.225,0.097,0.343,0.136c0.08,0.027,0.161,0.054,0.241,0.081
			c0.088,0.029,0.176,0.062,0.265,0.089c0.092,0.033,0.189,0.047,0.289,0.044c0.103,0.034,0.207,0.044,0.312,0.032l0.523-0.07
			c0.025-0.008,0.05-0.016,0.075-0.024c0.322-0.09,0.601-0.253,0.838-0.488c0.185-0.172,0.316-0.376,0.393-0.611
			c0.119-0.226,0.173-0.47,0.163-0.732C181.66,190.994,181.573,190.675,181.402,190.379z"/>
		<path style="fill:#F87B42;" d="M184.721,195.956c-0.115-0.148-0.23-0.297-0.344-0.445c-0.275-0.273-0.599-0.462-0.971-0.566
			c-0.049-0.018-0.099-0.024-0.15-0.033c-0.32-0.053-0.444-0.082-0.691-0.074l-0.274,0.009c-0.405,0.013-0.835,0.07-1.169,0.323
			c-0.055,0.041-0.109,0.082-0.163,0.123c-0.112,0.087-0.225,0.174-0.337,0.26c-0.162,0.151-0.277,0.329-0.344,0.536
			c-0.075,0.13-0.113,0.27-0.114,0.42c-0.049,0.221-0.04,0.443,0.03,0.664c0.125,0.44,0.291,0.883,0.665,1.178l0.217,0.172
			c0.174,0.137,0.333,0.3,0.53,0.402c0.202,0.105,0.412,0.2,0.63,0.266c0.293,0.092,0.585,0.105,0.878,0.04
			c0.293-0.013,0.566-0.101,0.818-0.261c0.257-0.138,0.463-0.328,0.618-0.567c0.195-0.213,0.326-0.462,0.394-0.749
			c0.026-0.195,0.052-0.39,0.079-0.585C185.02,196.67,184.92,196.3,184.721,195.956z"/>
		<path style="fill:#F8F0B0;" d="M369.01,160.833c-0.099-0.257-0.209-0.51-0.323-0.761c-0.158-0.348-0.371-0.65-0.654-0.915
			c-0.151-0.141-0.307-0.274-0.469-0.402c-0.146-0.117-0.294-0.231-0.444-0.343c-0.175-0.089-0.355-0.164-0.54-0.225
			c-0.043-0.015-0.086-0.031-0.129-0.046c-0.087-0.03-0.175-0.058-0.264-0.084c-0.453-0.133-0.9-0.094-1.342,0.038
			c-0.622,0.186-1.133,0.788-1.111,1.46c0.002,0.053,0.003,0.105,0.003,0.158c0,0.027-0.002,0.055-0.001,0.082
			c0.008,0.349,0.104,0.652,0.257,0.966c0.063,0.129,0.122,0.258,0.18,0.389c0.055,0.112,0.121,0.218,0.195,0.319
			c0.113,0.15,0.22,0.303,0.323,0.461c0.163,0.249,0.32,0.442,0.529,0.63c0.075,0.068,0.149,0.137,0.222,0.208
			c0.31,0.304,0.636,0.549,1.068,0.665c0.364,0.097,0.748,0.098,1.112-0.004c0.509-0.143,0.888-0.472,1.173-0.902
			C369.096,162.066,369.207,161.346,369.01,160.833z"/>
		<g>
			<path style="fill:#F8F0B0;" d="M363.158,167.145c0.002-0.004,0.004-0.008,0.006-0.013c0.001-0.002,0.001-0.005,0.002-0.007
				C363.164,167.132,363.161,167.138,363.158,167.145z"/>
			<path style="fill:#F8F0B0;" d="M367.717,169.21c-0.018-0.44-0.119-0.841-0.365-1.206c-0.213-0.317-0.413-0.653-0.712-0.896
				c-0.279-0.227-0.552-0.488-0.885-0.631c-0.088-0.037-0.176-0.075-0.264-0.113c-0.135-0.083-0.279-0.142-0.431-0.174
				c-0.142-0.019-0.284-0.038-0.426-0.057c-0.041,0.002-0.081,0.009-0.122,0.009c-0.318,0.002-0.615,0.113-0.864,0.306
				c-0.237,0.183-0.381,0.406-0.484,0.684c-0.092,0.221-0.143,0.444-0.134,0.688c0.003,0.084,0.013,0.169,0.021,0.253
				c0.033,0.39,0.096,0.694,0.231,1.046c0.074,0.194,0.149,0.418,0.243,0.584c0.104,0.184,0.249,0.34,0.378,0.507
				c0.074,0.095,0.148,0.191,0.222,0.286c0.316,0.408,0.825,0.605,1.307,0.758c0.321,0.086,0.643,0.086,0.964,0
				c0.236-0.056,0.441-0.164,0.616-0.325c0.197-0.128,0.353-0.297,0.467-0.508c0.164-0.283,0.246-0.588,0.247-0.915
				C367.726,169.406,367.721,169.307,367.717,169.21z"/>
			<path style="fill:#F8F0B0;" d="M363.127,167.219c0.01-0.025,0.021-0.05,0.031-0.075c-0.006,0.016-0.016,0.027-0.021,0.044
				C363.133,167.199,363.13,167.209,363.127,167.219z"/>
			<path style="fill:#F8F0B0;" d="M363.168,167.118c-0.001,0.002-0.001,0.004-0.002,0.007c0.036-0.086,0.072-0.171,0.108-0.257
				C363.239,166.952,363.204,167.035,363.168,167.118z"/>
		</g>
		<path style="fill:#F8F0B0;" d="M373.258,173.156c0-0.175-0.044-0.337-0.132-0.488c-0.021-0.096-0.06-0.182-0.117-0.259
			c-0.028-0.042-0.058-0.082-0.087-0.123c-0.058-0.082-0.108-0.169-0.16-0.255c-0.026-0.043-0.052-0.085-0.078-0.128
			c-0.012-0.019-0.023-0.038-0.035-0.057c-0.094-0.174-0.222-0.314-0.385-0.419c-0.055-0.044-0.11-0.087-0.167-0.128
			c-0.228-0.133-0.474-0.199-0.738-0.2c-0.264,0.001-0.51,0.067-0.739,0.2c-0.005,0.004-0.011,0.007-0.016,0.011
			c-0.174,0.094-0.314,0.222-0.419,0.385c-0.057,0.074-0.099,0.123-0.143,0.194c-0.026,0.043-0.052,0.086-0.078,0.128
			c-0.055,0.09-0.108,0.182-0.168,0.269c-0.029,0.041-0.059,0.081-0.087,0.123c-0.006,0.009-0.013,0.018-0.019,0.028
			c-0.065,0.154-0.13,0.308-0.195,0.462c-0.023,0.171-0.046,0.343-0.069,0.514c0.001,0.019,0.002,0.039,0.003,0.058
			c0.005,0.122,0.011,0.245,0.016,0.367c-0.01,0.264,0.045,0.51,0.165,0.738c0.077,0.237,0.209,0.443,0.396,0.616
			c0.173,0.187,0.379,0.319,0.616,0.396c0.228,0.12,0.474,0.175,0.738,0.165c0.17-0.023,0.339-0.046,0.509-0.068
			c0.324-0.091,0.606-0.255,0.845-0.493c0.1-0.129,0.2-0.258,0.299-0.388c0.173-0.299,0.26-0.621,0.261-0.966
			c0.005-0.116,0.01-0.232,0.015-0.348C373.295,173.367,373.28,173.317,373.258,173.156z"/>
		<path style="fill:#FFFFFF;" d="M236.816,96.991c0.007-0.194-0.033-0.374-0.121-0.542c-0.057-0.174-0.154-0.325-0.291-0.453
			c-0.046-0.046-0.1-0.078-0.151-0.116c-0.056-0.056-0.098-0.127-0.168-0.168c-0.104-0.08-0.138-0.119-0.228-0.164
			c-0.022-0.011-0.044-0.022-0.066-0.033c-0.007-0.004-0.015-0.007-0.022-0.011c-0.158-0.067-0.316-0.133-0.473-0.2
			c-0.099-0.014-0.198-0.027-0.297-0.04c-0.1-0.027-0.2-0.038-0.301-0.035c-0.024,0-0.048,0-0.071,0.001
			c-0.104,0-0.206,0.012-0.308,0.037c-0.105,0.003-0.208,0.019-0.309,0.046c-0.03,0.009-0.06,0.02-0.09,0.029
			c-0.245,0.08-0.489,0.16-0.734,0.24c-0.269,0.064-0.504,0.188-0.704,0.371c-0.225,0.146-0.403,0.34-0.533,0.581
			c-0.151,0.238-0.233,0.494-0.246,0.77c-0.062,0.275-0.049,0.55,0.037,0.826c0.07,0.165,0.139,0.33,0.209,0.495
			c0.184,0.311,0.432,0.559,0.743,0.743c0.165,0.07,0.33,0.139,0.494,0.209c0.367,0.098,0.734,0.098,1.101,0
			c0.248-0.093,0.495-0.186,0.743-0.279c0.107-0.04,0.209-0.085,0.316-0.13c0.094-0.037,0.187-0.077,0.279-0.119
			c0.138-0.107,0.276-0.214,0.415-0.32c0.045-0.035,0.089-0.07,0.131-0.109c0.206-0.191,0.27-0.316,0.365-0.519
			c0.071-0.153,0.171-0.34,0.202-0.474l0.065-0.484c0-0.007-0.003-0.015-0.003-0.022C236.803,97.076,236.816,97.035,236.816,96.991z
			"/>
		<path style="fill:#FFFFFF;" d="M246.263,102.962c-0.131-0.069-0.267-0.127-0.407-0.175c-0.137-0.018-0.273-0.037-0.41-0.055
			c-0.061-0.007-0.122-0.012-0.182-0.019c-0.25-0.026-0.511,0.016-0.75,0.087l-0.699,0.21c-0.229,0.069-0.462,0.137-0.669,0.262
			c-0.218,0.132-0.363,0.288-0.53,0.464c-0.143,0.151-0.294,0.298-0.404,0.477c-0.095,0.155-0.15,0.312-0.191,0.483
			c-0.09,0.371-0.008,0.796,0.281,1.064c0.201,0.186,0.399,0.333,0.667,0.421c0.102,0.033,0.208,0.054,0.313,0.079
			c0.163,0.038,0.316,0.068,0.484,0.091c0.324,0.043,0.631-0.007,0.942-0.1l0.699-0.21c0.183-0.055,0.343-0.104,0.523-0.206
			c0.158-0.089,0.293-0.213,0.434-0.327c0.177-0.144,0.318-0.283,0.437-0.495C247.18,104.335,246.995,103.339,246.263,102.962z"/>
		<path style="fill:#FFFFFF;" d="M249.431,95.125c-0.026-0.015-0.051-0.03-0.077-0.045c-0.016-0.01-0.032-0.019-0.048-0.028
			c-0.059-0.035-0.123-0.063-0.191-0.082c-0.064-0.029-0.128-0.056-0.193-0.081c-0.067-0.021-0.137-0.035-0.205-0.051
			c-0.032-0.008-0.064-0.016-0.097-0.023c-0.142-0.019-0.283-0.038-0.425-0.057l-0.425,0.057c-0.008,0.001-0.016,0.003-0.025,0.004
			c-0.127,0.053-0.254,0.107-0.381,0.161c-0.057,0.034-0.113,0.071-0.17,0.106c-0.444,0.278-0.729,0.74-0.729,1.271
			c0,0.531,0.285,0.993,0.729,1.271c0.053,0.033,0.106,0.068,0.16,0.1c0.061,0.039,0.128,0.068,0.2,0.086
			c0.063,0.045,0.13,0.072,0.203,0.082c0.075,0.011,0.15,0.021,0.225,0.03c0.142,0.038,0.283,0.038,0.425,0
			c0.114-0.015,0.204-0.027,0.309-0.052c0.064-0.015,0.13-0.028,0.193-0.046l0.023-0.009c0.121-0.051,0.242-0.102,0.362-0.153
			c0.016-0.009,0.032-0.019,0.048-0.028c0.029-0.017,0.058-0.034,0.086-0.051c0.434-0.254,0.706-0.728,0.706-1.231
			C250.137,95.853,249.864,95.379,249.431,95.125z"/>
		<path style="fill:#FFFFFF;" d="M258.303,102.61c-0.147-0.248-0.344-0.445-0.592-0.592c-0.113-0.076-0.295-0.132-0.421-0.184
			c-0.019-0.008-0.038-0.015-0.057-0.023c-0.038-0.015-0.075-0.032-0.114-0.046l-0.028-0.012c-0.155-0.021-0.311-0.042-0.466-0.063
			c-0.01,0-0.021-0.001-0.031-0.002c-0.155,0.021-0.311,0.042-0.466,0.063c-0.045,0.008-0.09,0.018-0.134,0.028
			c-0.117,0.024-0.18,0.053-0.308,0.107c-0.255,0.107-0.182,0.063-0.399,0.23c-0.127,0.075-0.228,0.176-0.303,0.303
			c-0.049,0.056-0.095,0.116-0.137,0.177c-0.026,0.037-0.051,0.075-0.076,0.113c-0.272,0.402-0.272,1.065,0,1.467
			c0.024,0.035,0.048,0.071,0.072,0.106c0.062,0.09,0.195,0.277,0.273,0.355c0.114,0.088,0.228,0.176,0.342,0.264
			c0.008,0.004,0.016,0.008,0.024,0.012l0.407,0.172c0.01,0.002,0.02,0.004,0.03,0.006c0.025,0.006,0.05,0.01,0.075,0.015
			c0.04,0.008,0.08,0.017,0.12,0.025c0.126,0.025,0.369,0.065,0.497,0.065c0.083-0.004,0.166-0.015,0.249-0.032
			c0.088,0.008,0.17-0.004,0.247-0.037c0.038-0.014,0.076-0.031,0.114-0.046l0.057-0.023c0.129-0.052,0.32-0.112,0.436-0.189
			c0.248-0.147,0.446-0.344,0.592-0.592c0.149-0.258,0.224-0.535,0.225-0.833C258.527,103.145,258.452,102.867,258.303,102.61z"/>
		<path style="fill:#FFFFFF;" d="M262.209,95.6c-0.087-0.208-0.122-0.316-0.33-0.507c-0.109-0.084-0.219-0.169-0.328-0.253
			c-0.008-0.003-0.016-0.007-0.024-0.01c-0.157-0.067-0.303-0.153-0.439-0.256c-0.007-0.005-0.013-0.011-0.02-0.015
			c-0.015-0.01-0.289-0.138-0.429-0.178c-0.033-0.009-0.066-0.017-0.099-0.026c-0.064-0.019-0.126-0.041-0.187-0.066
			c0.046,0.019,0.092,0.039,0.138,0.058c-0.117-0.067-0.243-0.102-0.378-0.102c-0.072-0.013-0.144-0.022-0.217-0.028
			c-0.045,0-0.091,0.008-0.137,0.014c-0.038,0.003-0.076,0.008-0.115,0.007c-0.206,0.001-0.398,0.053-0.576,0.156
			c-0.171,0.101-0.308,0.238-0.409,0.409c-0.063,0.131-0.12,0.267-0.169,0.404c-0.008,0.022-0.015,0.044-0.022,0.067
			c-0.003,0.008-0.005,0.017-0.007,0.025c-0.026,0.098-0.057,0.326-0.056,0.426c0.001,0.115,0.035,0.311,0.062,0.421
			c0.021,0.085,0.111,0.268,0.167,0.395c0.016,0.036,0.033,0.071,0.051,0.105c0.093,0.179,0.226,0.382,0.364,0.51
			c0.317,0.296,0.704,0.468,1.113,0.605c0.038,0.013,0.077,0.025,0.116,0.035c0.008,0.002,0.016,0.004,0.023,0.006
			c0.144,0.019,0.287,0.039,0.431,0.058c0.223,0.009,0.431-0.038,0.625-0.14c0.073-0.021,0.143-0.051,0.208-0.09
			c0.143-0.097,0.285-0.205,0.412-0.323c0.074-0.096,0.149-0.192,0.223-0.289c0.104-0.163,0.161-0.34,0.169-0.53
			c0.034-0.126,0.034-0.253,0-0.379C262.361,95.928,262.306,95.758,262.209,95.6z"/>
		<path style="fill:#F87B42;" d="M251.517,168.462c-0.233,0.537-0.306,1.133-0.281,1.718c0.084,1.971,1.3,3.822,3.007,4.812
			c1.707,0.99,3.841,1.145,5.724,0.557c3.537-1.104,10.203-9.167,6.268-12.676C262.89,159.891,252.931,165.212,251.517,168.462z"/>
		<path style="fill:#371F0E;" d="M247.687,160.865c1.596-1.53,6.628-5.434,10.65-5.121c1.558,0.12,2.828,0.85,3.884,2.23
			c1.92,2.511,2.522,4.895,1.79,7.086c-1.036,3.101-4.36,5.027-6.892,5.736c-0.798,0.223-1.264,1.051-1.04,1.849
			c0.185,0.662,0.788,1.096,1.443,1.096c0.134,0,0.271-0.018,0.405-0.056c3.239-0.906,7.521-3.46,8.929-7.674
			c0.734-2.195,0.938-5.688-2.252-9.859c-1.582-2.068-3.612-3.213-6.036-3.399c-6.186-0.46-12.683,5.684-12.957,5.946
			c-0.598,0.573-0.618,1.522-0.045,2.121C246.139,161.419,247.088,161.437,247.687,160.865z"/>
		<ellipse style="fill:#F83832;" cx="192.084" cy="153.376" rx="11.597" ry="7.973"/>
		<ellipse style="fill:#F83832;" cx="319.171" cy="144.436" rx="11.597" ry="7.973"/>
		<path style="fill:#6F3919;" d="M324.679,275.389c-22.073,6.891-50.881,14.58-69.53,14.58c-0.705,0-1.393-0.011-2.068-0.033
			c-23.939-0.795-72.919-15.774-92.866-22.179c-14.898-4.783-35.382-11.824-49.57-17.499c-0.858,5.424-3.084,22.893,2.053,32.145
			c4.315,7.772,46.218,17.843,96.489,20.734c5.155-2.125,10.383-4.032,15.796-5.367c9.779-2.411,19.91-2.901,29.921-4.001
			C278.9,291.135,302.491,284.897,324.679,275.389z"/>
		<path style="fill:#6F3919;" d="M283.066,297.564c-0.263-0.329-0.615-0.467-1-0.606c-0.626-0.226-1.306-0.135-1.956-0.163
			c-0.447-0.019-0.896-0.034-1.343-0.072c-0.548-0.099-1.067-0.261-1.605-0.414c-0.661-0.189-1.339-0.456-2.029-0.474
			c-0.958-0.026-1.581,0.929-1.375,1.805c0.189,0.805,0.852,1.493,1.493,1.981c0.549,0.417,1.157,0.68,1.808,0.91
			c0.659,0.233,1.334,0.343,2.026,0.431c0.706,0.09,1.412-0.018,2.105-0.171c0.884-0.195,1.753-0.765,2.112-1.616
			C283.544,298.599,283.455,298.051,283.066,297.564z"/>
		<path style="fill:#6F3919;" d="M289.421,293.84c-0.1-0.052-0.196-0.11-0.295-0.164c-0.335-0.184-0.649-0.229-1.018-0.253
			c-0.317-0.021-0.624-0.009-0.942-0.012c-0.306-0.002-0.608,0.046-0.915,0.059c-0.152,0.007-0.304,0.005-0.457,0.005
			c-0.291,0.001-0.576,0.064-0.864,0.106c0.023-0.003,0.047-0.006,0.07-0.009c-0.274,0.04-0.54,0.1-0.773,0.275
			c-0.271,0.204-0.524,0.435-0.604,0.785c-0.08,0.353-0.039,0.69,0.133,1.012c0.183,0.344,0.461,0.584,0.806,0.754
			c0.255,0.125,0.515,0.263,0.793,0.318c0.493,0.098,1.036,0.177,1.544,0.166c0.595-0.012,1.275-0.179,1.805-0.449
			c0.356-0.182,0.664-0.384,0.891-0.732c0.081-0.124,0.147-0.257,0.211-0.391C290.048,294.808,289.969,294.123,289.421,293.84z"/>
		<g>
			<path style="fill:#6F3919;" d="M320.311,288.621C320.48,288.552,320.517,288.476,320.311,288.621L320.311,288.621z"/>
			<path style="fill:#6F3919;" d="M323.661,288.806c-0.126-0.422-0.464-0.622-0.875-0.672c0.177,0.022,0.096,0.012-0.249-0.034
				c-0.071-0.005-0.141-0.006-0.212-0.006c-0.309,0-0.568,0.068-0.857,0.15c-0.263,0.075-0.521,0.116-0.774,0.223
				c-0.119,0.05-0.332,0.11-0.445,0.195c0.029-0.022,0.039-0.026,0.062-0.042c-0.013,0.005-0.02,0.01-0.034,0.015
				c-0.409,0.141-0.836,0.255-1.254,0.368c-0.199,0.054-0.408,0.08-0.607,0.133c-0.09,0.008-0.181,0.017-0.272,0.022
				c-0.2,0.011-0.4,0.013-0.6,0.007c-0.117-0.003-0.234-0.01-0.351-0.02c-0.237-0.095-0.608-0.121-0.862-0.138
				c-0.015-0.002-0.03-0.004-0.042-0.006c-0.117-0.022-0.233-0.046-0.348-0.075c-0.19-0.046-0.377-0.102-0.561-0.166
				c-0.055-0.019-0.109-0.039-0.163-0.06c-0.022-0.008-0.033-0.013-0.043-0.017c-0.033-0.02-0.067-0.042-0.092-0.054
				c-0.556-0.284-1.041-0.453-1.669-0.44c-0.628,0.012-1.043,0.493-1.094,1.094c-0.115,1.373,1.153,2.353,2.214,2.982
				c1.109,0.658,2.387,0.918,3.67,0.913c1.28-0.004,2.559-0.259,3.656-0.937C323.003,291.537,324.088,290.237,323.661,288.806z"/>
		</g>
		<g>
			<path style="fill:#6F3919;" d="M328.168,287.75c-0.365,0.041-0.726-0.006-1.087,0.019c-0.404,0.028-0.811,0.061-1.216,0.065
				c-0.388,0.004-0.785-0.018-1.172-0.042c0.018,0.007,0.035,0.014,0.049,0.024c-0.022-0.016-0.064-0.02-0.101-0.027
				c-0.135-0.009-0.16-0.019-0.134-0.022c-0.027-0.002-0.059-0.004-0.077-0.008c-0.208-0.044-0.413-0.102-0.614-0.172
				c-0.173-0.061-0.343-0.128-0.518-0.182c-0.005-0.002-0.006-0.002-0.011-0.004c-0.062-0.03-0.124-0.061-0.187-0.091
				c-0.365-0.173-0.71-0.353-1.045-0.579c-0.072-0.069-0.152-0.135-0.227-0.2c-0.129-0.112-0.265-0.214-0.401-0.318
				c-0.012-0.009-0.015-0.011-0.025-0.018c-0.013-0.012-0.021-0.02-0.041-0.039c-0.339-0.311-0.67-0.661-1.123-0.794
				c-0.408-0.12-0.796,0.087-1.023,0.416c-0.359,0.521-0.229,1.247-0.114,1.822c0.104,0.519,0.343,1.005,0.632,1.446
				c0.727,1.112,1.731,2.008,3.015,2.41c1.168,0.365,2.517,0.438,3.67-0.003c0.665-0.255,1.23-0.562,1.754-1.053
				c0.422-0.396,0.665-0.981,0.863-1.513C329.224,288.378,328.722,287.687,328.168,287.75z"/>
			<path style="fill:#6F3919;" d="M324.657,287.79c0.012,0.001,0.024,0,0.036,0.001c-0.069-0.025-0.158-0.029-0.187-0.025
				c0.047,0.004,0.086,0.014,0.134,0.022C324.646,287.79,324.649,287.79,324.657,287.79z"/>
		</g>
		<path style="fill:#6F3919;" d="M340.23,276.888c-1.016-0.031-1.788,0.742-2.667,1.126c0.158-0.066,0.315-0.133,0.473-0.199
			c-0.227,0.095-0.452,0.192-0.678,0.289c-0.492,0.204-1.01,0.292-1.507,0.471c-0.51,0.184-1.058,0.237-1.495,0.54
			c-0.022,0.005-0.043,0.014-0.065,0.019c-0.718,0.165-0.98,1.167-0.44,1.665c0.034,0.031,0.066,0.063,0.1,0.093
			c0.201,0.344,0.493,0.576,0.898,0.747c0.301,0.127,0.603,0.245,0.919,0.33c0.816,0.218,1.658,0.112,2.475-0.052
			c0.675-0.136,1.321-0.438,1.896-0.816c0.344-0.227,0.704-0.471,0.997-0.761c0.43-0.427,0.777-1.194,0.753-1.79
			C341.852,277.63,341.16,276.916,340.23,276.888z"/>
		<g>
			<path style="fill:#6F3919;" d="M363.603,284.224c-0.061-0.486-0.354-0.86-0.879-0.879c-0.42-0.015-0.768-0.01-1.183,0.107
				c-0.16,0.045-0.322,0.075-0.485,0.111c-0.027,0.006-0.032,0.008-0.046,0.012c-0.006,0.001-0.007,0.001-0.014,0.002
				c-0.167,0.022-0.286,0.049-0.439,0.099c-0.368,0.119-0.746,0.178-1.12,0.269c-0.155,0.038-0.31,0.067-0.465,0.099
				c-0.068,0.005-0.135,0.012-0.203,0.016c-0.367,0.021-0.738,0.027-1.105,0.038c-0.173,0.005-0.346,0.003-0.518-0.008
				c-0.047-0.003-0.105-0.012-0.163-0.02c0.102,0.014,0.172,0.035-0.033,0.002c-0.016-0.002-0.031-0.004-0.047-0.006
				c-0.021-0.001-0.045-0.005-0.064-0.003c0.013-0.001,0.032,0.001,0.048,0.001c-0.182-0.029-0.365-0.057-0.547-0.076
				c-0.04-0.004-0.182-0.028-0.254-0.026c-0.073-0.014-0.146-0.027-0.218-0.044c-0.333-0.077-0.65-0.15-0.995-0.072
				c-0.391,0.089-0.836,0.454-0.91,0.851c-0.078,0.423-0.053,0.794,0.176,1.165c0.143,0.232,0.359,0.456,0.554,0.65
				c0.338,0.335,0.716,0.646,1.148,0.847c1.003,0.465,2.02,0.771,3.138,0.67c1.107-0.1,2.122-0.351,3.056-0.977
				c0.521-0.35,0.901-0.816,1.239-1.343C363.572,285.241,363.671,284.764,363.603,284.224z"/>
			<path style="fill:#6F3919;" d="M356.983,284.069c-0.033-0.004-0.063-0.006-0.095-0.006c0.005,0.001,0.01,0.001,0.015,0.002
				C356.929,284.066,356.954,284.065,356.983,284.069z"/>
		</g>
		<path style="fill:#AF5531;" d="M171.42,277.725c-0.199-0.589-0.719-1.047-1.366-1.04c-0.678,0.008-1.195,0.337-1.766,0.646
			c-0.225,0.122-0.353,0.201-0.549,0.353c-0.016,0.01-0.035,0.022-0.076,0.049c-0.213,0.135-0.423,0.269-0.646,0.386
			c-0.222,0.117-0.439,0.243-0.663,0.356c-0.053,0.027-0.107,0.052-0.161,0.077c-0.078,0.027-0.175,0.06-0.189,0.064
			c-0.239,0.079-0.481,0.134-0.726,0.19c-0.026,0.006-0.034,0.008-0.052,0.013c-0.013,0-0.017,0-0.033,0.001
			c-0.129,0.007-0.258,0.015-0.387,0.023c-0.256,0.015-0.51,0.029-0.767,0.019c-0.097-0.004-0.193-0.012-0.29-0.02
			c-0.04-0.005-0.111-0.014-0.174-0.026c-0.251-0.049-0.499-0.113-0.742-0.192c-0.104-0.034-0.207-0.071-0.309-0.111
			c-0.02-0.012-0.16-0.077-0.196-0.094c-0.472-0.22-0.984-0.371-1.471-0.558c-0.21-0.081-0.803-0.231-0.97,0.049
			c-0.604,1.01,0.396,2.394,1.173,3.02c1.142,0.918,2.503,1.561,3.977,1.68c1.339,0.108,2.922-0.191,4.078-0.898
			C170.364,280.949,171.976,279.371,171.42,277.725z"/>
		<g>
			<path style="fill:#AF5531;" d="M173.469,275.864c-0.361-0.104-0.323-0.067-0.2-0.035c0.051,0.008,0.102,0.018,0.152,0.028
				C173.437,275.859,173.453,275.862,173.469,275.864z"/>
			<path style="fill:#AF5531;" d="M176.751,276.253c-0.292-0.049-0.587-0.116-0.875-0.184c-0.49-0.116-0.931-0.066-1.422-0.083
				c-0.081-0.003-0.163-0.008-0.244-0.014c-0.009-0.001-0.024-0.002-0.042-0.004c-0.038-0.006-0.078-0.012-0.1-0.016
				c-0.199-0.035-0.399-0.063-0.6-0.088c0.007,0.002,0.011,0.003,0.018,0.005c-0.021-0.006-0.044-0.008-0.066-0.012
				c-0.014-0.002-0.027-0.004-0.041-0.006c-0.039-0.005-0.078-0.013-0.111-0.022c-0.024-0.004-0.049-0.008-0.072-0.013
				c-0.177-0.037-0.352-0.082-0.525-0.134c-0.337-0.102-0.676-0.197-1.009-0.315c-0.062-0.031-0.125-0.059-0.187-0.09
				c-0.173-0.088-0.341-0.185-0.504-0.29c-0.147-0.095-0.289-0.194-0.438-0.286c-0.079-0.049-0.156-0.101-0.234-0.152
				c-0.014-0.009-0.019-0.013-0.03-0.02c-0.133-0.113-0.259-0.232-0.389-0.348c-0.061-0.055-0.291-0.236-0.299-0.239
				c-0.046-0.038-0.092-0.076-0.137-0.115c-0.598-0.524-1.539-0.174-1.567,0.649c-0.072,2.149,1.824,4.022,3.72,4.728
				c0.385,0.143,0.78,0.248,1.186,0.315c0.712,0.117,1.333,0.065,2.043-0.051c0.637-0.104,1.227-0.3,1.708-0.753
				c0.331-0.312,0.589-0.669,0.776-1.083C177.534,277.139,177.406,276.362,176.751,276.253z"/>
		</g>
		<path style="fill:#AF5531;" d="M130.037,270.869c-0.325-0.465-0.762-0.745-1.288-0.949c-0.234-0.091-0.453-0.139-0.695-0.176
			c0.036,0.004,0.046,0.005-0.016-0.006c-0.081-0.014-0.163-0.026-0.244-0.042c-0.641-0.121-1.294-0.313-1.908-0.536
			c-0.056-0.02-0.111-0.042-0.166-0.063c-0.148-0.07-0.295-0.139-0.44-0.216c-0.146-0.078-0.286-0.165-0.437-0.234
			c-0.148-0.068-0.3-0.127-0.451-0.186c-0.004-0.002-0.021-0.009-0.037-0.015c-0.041-0.019-0.127-0.055-0.151-0.067
			c-0.073-0.034-0.146-0.071-0.218-0.107c-0.172-0.088-0.336-0.187-0.515-0.262c-0.408-0.172-1.194-0.241-1.418,0.27
			c-0.222,0.506-0.18,0.961,0.075,1.459c0.15,0.294,0.329,0.576,0.522,0.844c0.52,0.721,1.262,1.248,2.038,1.672
			c0.705,0.385,1.445,0.651,2.237,0.778c0.609,0.097,1.126,0.169,1.732,0.01c0.535-0.14,1.099-0.483,1.379-0.98
			C130.232,271.714,130.277,271.212,130.037,270.869z"/>
		<g>
			<path style="fill:#AF5531;" d="M142.292,286.304c-0.028-0.013-0.051-0.024-0.076-0.034c0.016,0.007,0.03,0.014,0.045,0.021
				C142.272,286.295,142.282,286.3,142.292,286.304z"/>
			<path style="fill:#AF5531;" d="M147.937,287.904c-0.304-0.17-0.634-0.24-0.961-0.348c-0.15-0.049-0.295-0.076-0.451-0.103
				c-0.137-0.024-0.272-0.044-0.41-0.062c-0.025-0.003-0.033-0.004-0.054-0.007c-0.006-0.001-0.005-0.001-0.012-0.003
				c-0.461-0.087-0.904-0.202-1.37-0.267c0.114,0.016,0.468,0.071,0.152,0.018c-0.083-0.014-0.167-0.03-0.249-0.047
				c-0.166-0.034-0.33-0.075-0.493-0.122c-0.324-0.093-0.639-0.216-0.959-0.324c-0.165-0.055-0.62-0.303-0.127-0.036
				c-0.226-0.122-0.471-0.21-0.712-0.299c0.018,0.009,0.038,0.017,0.053,0.026c-0.025-0.015-0.055-0.026-0.083-0.039
				c-0.001,0-0.002-0.001-0.003-0.001c-0.163-0.061-0.119-0.05-0.042-0.02c-0.034-0.015-0.067-0.031-0.099-0.047
				c-0.193-0.095-0.376-0.204-0.574-0.288c-0.661-0.279-1.444-0.286-1.91,0.333c-0.762,1.014,0.284,2.357,1.033,3.041
				c0.72,0.657,1.629,1.102,2.564,1.348c0.452,0.119,0.99,0.242,1.45,0.245c0.485,0.004,0.993-0.099,1.466-0.21
				c0.948-0.223,1.837-0.84,2.213-1.752C148.509,288.577,148.26,288.085,147.937,287.904z"/>
		</g>
		<path style="fill:#AF5531;" d="M206.094,288.469c-0.132-0.046-0.261-0.102-0.392-0.149c-0.272-0.1-0.573-0.099-0.86-0.119
			c-0.169-0.012-0.338-0.042-0.507-0.051c-0.218-0.012-0.437,0.022-0.655,0.06c-0.399,0.038-0.797,0.046-1.195,0.086
			c-0.462,0.047-0.928,0.058-1.392,0.028c-0.456-0.029-0.892-0.036-1.349-0.039c-0.197-0.001-0.396-0.023-0.593-0.017
			c-0.355,0.011-0.619,0.143-0.912,0.307c-0.252,0.141-0.46,0.462-0.435,0.759c0.042,0.509,0.167,0.905,0.538,1.276
			c0.299,0.299,0.655,0.555,0.995,0.803c0.635,0.465,1.561,0.666,2.332,0.785c0.492,0.076,0.962,0.152,1.457,0.105
			c0.487-0.046,0.977-0.111,1.455-0.212c0.935-0.198,1.855-0.991,2.238-1.842C207.152,289.502,206.888,288.749,206.094,288.469z"/>
		<path style="fill:#F87B42;" d="M384.869,253.369c-1.004,0.438-2.057,0.888-3.129,1.341c-0.003,0.103-0.006,0.206-0.01,0.311
			c-0.034,1.126-0.102,2.25-0.142,3.375c-0.081,2.273-0.373,4.504-0.536,6.767c-0.306,4.263-0.336,7.994-1.339,11.88
			c-0.525,2.033-0.949,3.19-2.069,4.988c-0.983,1.577-1.781,2.451-3.307,3.919c-1.907,1.834-3.805,3.367-5.783,4.854
			c4.202-1.341,7.443-2.767,9.702-4.278c1.721-1.151,3.087-2.55,4.174-4.116c0.015-0.371,0.16-0.738,0.447-1.018
			c0.098-0.095,0.216-0.15,0.331-0.213c4.499-7.842,2.897-19.104,1.94-25.804C385.045,254.654,384.95,253.985,384.869,253.369z"/>
		<path style="fill:#F87B42;" d="M374.712,262.572c-0.13-0.307-0.376-0.539-0.704-0.628c-0.189-0.051-0.404-0.056-0.601-0.077
			c-0.029-0.003-0.058-0.007-0.087-0.009c-0.065-0.008-0.13-0.001-0.195,0.022c-0.073,0.005-0.144,0.016-0.215,0.032
			c-0.159,0.047-0.311,0.13-0.459,0.206c-0.228,0.118-0.457,0.235-0.685,0.353c-0.422,0.217-0.641,0.694-0.658,1.147
			c-0.007,0.176,0.057,0.502,0.168,0.659c0.178,0.251,0.239,0.31,0.49,0.488c0.207,0.12,0.431,0.181,0.671,0.181
			c0.24-0.001,0.463-0.061,0.671-0.181c0.228-0.106,0.456-0.212,0.684-0.318c0.052-0.024,0.106-0.047,0.158-0.073
			c0.229-0.116,0.412-0.347,0.544-0.56c0.055-0.089,0.123-0.179,0.164-0.276c0.098-0.169,0.148-0.352,0.148-0.548
			C374.811,262.841,374.78,262.701,374.712,262.572z"/>
		<path style="fill:#F87B42;" d="M377.661,266.625c-0.007-0.159-0.054-0.306-0.141-0.443c-0.062-0.08-0.124-0.161-0.186-0.241
			c-0.149-0.148-0.324-0.25-0.526-0.306c-0.105-0.014-0.211-0.029-0.317-0.043c-0.215,0.001-0.415,0.055-0.601,0.163
			c-0.054,0.027-0.107,0.053-0.161,0.08c-0.221,0.11-0.423,0.293-0.526,0.52c-0.042,0.092-0.084,0.184-0.125,0.276
			c-0.083,0.143-0.125,0.298-0.125,0.463c-0.005,0.126,0.022,0.244,0.079,0.354c0.037,0.114,0.1,0.212,0.19,0.295
			c0.115,0.114,0.25,0.192,0.405,0.236l0.266,0.06c0.011,0.002,0.022,0.005,0.033,0.007c0.26,0.057,0.282,0.051,0.495,0.022
			c0.159-0.007,0.306-0.054,0.443-0.141c0.008-0.004,0.015-0.008,0.023-0.012l0.04-0.02c0.056-0.028,0.111-0.056,0.167-0.083
			c0.139-0.075,0.25-0.177,0.334-0.307c0.105-0.115,0.176-0.25,0.213-0.405C377.689,266.941,377.696,266.783,377.661,266.625z"/>
		<path style="fill:#F87B42;" d="M368.774,267.817c-0.011-0.061-0.029-0.091-0.058-0.161c-0.059-0.14-0.146-0.256-0.247-0.368
			c-0.083-0.092-0.057-0.088-0.271-0.215c-0.101-0.063-0.21-0.11-0.327-0.141c-0.171-0.054-0.343-0.061-0.514-0.023
			c-0.322,0.043-0.619,0.139-0.901,0.309c-0.185,0.112-0.371,0.218-0.542,0.35c-0.172,0.133-0.311,0.286-0.459,0.443
			c-0.167,0.178-0.282,0.42-0.316,0.67c-0.009,0.033-0.019,0.066-0.028,0.099c-0.053,0.186-0.027,0.438,0.079,0.602
			c0.041,0.053,0.081,0.105,0.122,0.158c0.092,0.092,0.203,0.152,0.327,0.19c0.008,0.006,0.016,0.012,0.024,0.018
			c0.008,0.005,0.011,0.014,0.019,0.019c0.174,0.101,0.362,0.152,0.564,0.153c0.081-0.008,0.162-0.015,0.243-0.023
			c0.17-0.016,0.35-0.02,0.514-0.062c0.158-0.04,0.312-0.113,0.464-0.171c0.177-0.068,0.375-0.122,0.528-0.234
			c0.063-0.046,0.124-0.093,0.185-0.14c0.194-0.115,0.348-0.269,0.463-0.463c0.117-0.201,0.176-0.418,0.176-0.651
			C368.819,268.056,368.797,267.937,368.774,267.817z"/>
		<path style="fill:#5B8242;" d="M388.421,205.085c-2.196-3.669-5.228-6.77-8.703-8.732c-5.183,11.038-16.94,18.462-35.624,22.561
			c-20.331,4.461-46.284,4.401-69.188,4.349c-2.508-0.006-4.991-0.012-7.44-0.012c-3.126,0-6.467,0.011-9.98,0.021
			c-3.874,0.012-7.971,0.024-12.231,0.024c-23.244,0-51.39-0.377-75.179-3.296c-31.07-3.813-48.138-11.126-51.938-22.299
			c-2.837,1.339-12.218,6.268-15.544,14.289c-1.663,4.012-1.572,8.289,0.271,12.714c1.41,3.386,3.744,5.629,7.134,6.858
			c12.154,4.407,32.861-6.26,33.069-6.368c0.479-0.249,1.057-0.22,1.51,0.072c0.454,0.294,0.714,0.81,0.681,1.35
			c-0.011,0.184-0.992,18.408,9.971,23.146c10.876,4.704,24.66-12.794,24.798-12.971c0.379-0.484,1.013-0.691,1.605-0.518
			c0.59,0.172,1.016,0.688,1.073,1.301c0.046,0.492,0.793,7.683,5.004,13.859c5.871,0.968,12.342-0.362,17.625-3.288
			c8.549-4.737,14.702-12.753,20.602-20.546c5.08,9.826,20.812,11.566,27.917,3.088c7.486,9.626,24.627,8.902,31.274-1.322
			c4.671,6.274,12.702,9.881,20.494,9.205c7.793-0.676,15.082-5.612,18.604-12.596c11.68,8.827,30.909,4.434,37.597-8.589
			C372.001,221.192,384.563,215.102,388.421,205.085z"/>
		<path style="fill:#B6DD95;" d="M303.486,250.161c-0.335-0.374-0.708-0.604-1.113-0.796c0.029,0.012,0.058,0.025,0.087,0.037
			c-0.715-0.337-1.4-0.701-2.195-0.808c-0.529-0.071-1.06-0.125-1.589-0.196c0.361,0.049,0.723,0.097,1.084,0.146
			c-1.614-0.228-3.28-0.313-4.91-0.387c-0.646-0.029-1.268,0.032-1.911,0.095c-0.747,0.073-1.577,0.028-2.275,0.305
			c-0.891,0.354-1.751,1.313-1.344,2.368c0.253,0.658,0.59,1.155,1.068,1.657c0.308,0.324,0.608,0.65,0.939,0.953
			c1.082,0.99,2.272,1.615,3.645,2.114c2.704,0.982,6.192,1.734,8.516-0.494C304.916,253.783,304.74,251.559,303.486,250.161z"/>
		<path style="fill:#B6DD95;" d="M311.34,245.564c-0.002-0.003-0.004-0.005-0.005-0.008c-0.121-0.156-0.241-0.312-0.362-0.468
			c-0.156-0.121-0.312-0.241-0.468-0.362c-0.005-0.003-0.009-0.006-0.014-0.008c-0.021-0.013-0.041-0.026-0.062-0.039
			c-0.039-0.024-0.078-0.049-0.117-0.073c-0.383-0.222-0.796-0.334-1.24-0.335c-0.443,0.002-0.857,0.113-1.24,0.335
			c-0.747,0.437-1.216,1.255-1.216,2.121c0,0.866,0.47,1.684,1.216,2.121c0.383,0.222,0.796,0.334,1.24,0.335
			c0.443-0.001,0.857-0.113,1.24-0.335c0.039-0.026,0.078-0.051,0.117-0.077c0.018-0.012,0.037-0.024,0.055-0.036
			c0.09-0.059,0.158-0.119,0.255-0.195c0.174-0.103,0.312-0.241,0.415-0.415c0.067-0.077,0.129-0.158,0.186-0.242
			c0.208-0.358,0.312-0.745,0.314-1.16C311.653,246.309,311.548,245.922,311.34,245.564z"/>
		<path style="fill:#B6DD95;" d="M215.074,250.809c-0.247-0.421-0.721-0.706-1.214-0.697c-0.212,0.004-0.423,0.008-0.635,0.012
			c-0.192-0.031-0.386-0.046-0.583-0.035c-0.172,0.01-0.334,0.03-0.508,0.053c-0.121-0.002-0.237,0.016-0.349,0.055
			c-0.184,0.077-0.367,0.155-0.551,0.232c-0.043,0.021-0.085,0.044-0.128,0.065c-0.154,0.079-0.322,0.148-0.468,0.24
			c-0.013,0.009-0.026,0.018-0.039,0.028c-0.275,0.148-0.495,0.35-0.661,0.607c-0.097,0.126-0.16,0.193-0.225,0.313
			c-0.04,0.074-0.081,0.148-0.121,0.222c-0.374,0.687-0.401,1.504,0,2.189c0.375,0.641,1.116,1.101,1.872,1.074
			c0.074-0.003,0.149-0.006,0.223-0.008c0.034-0.001,0.068-0.002,0.102-0.004c0.325,0.012,0.627-0.055,0.908-0.203
			c0.112-0.038,0.22-0.085,0.324-0.141c0.147-0.095,0.285-0.209,0.425-0.313c0.209-0.154,0.434-0.294,0.616-0.479
			c0.21-0.214,0.327-0.41,0.464-0.647c0.035-0.061,0.072-0.121,0.105-0.183c0.046-0.092,0.086-0.186,0.121-0.282
			c0.038-0.073,0.058-0.151,0.084-0.227c0.079-0.151,0.158-0.302,0.237-0.453C215.31,251.777,215.337,251.259,215.074,250.809z"/>
		<path style="fill:#B6DD95;" d="M357.038,240.815c-0.034-0.254-0.036-0.352-0.104-0.545c-0.138-0.493-0.388-0.921-0.748-1.284
			c-0.264-0.284-0.576-0.484-0.936-0.602c-0.347-0.182-0.72-0.266-1.121-0.25c-0.525,0.002-1.015,0.134-1.469,0.397
			c-0.045,0.022-0.091,0.042-0.136,0.066c-0.205,0.158-0.41,0.316-0.614,0.475c-0.018,0.014-0.033,0.029-0.046,0.046
			c-0.02,0.021-0.038,0.045-0.056,0.067c-0.08,0.096-0.159,0.191-0.239,0.286c-0.019,0.023-0.038,0.045-0.056,0.067
			c-0.169,0.219-0.338,0.437-0.507,0.656l-0.327,0.774c-0.021,0.059-0.04,0.119-0.059,0.179c-0.022,0.067-0.043,0.134-0.065,0.201
			c-0.055,0.169-0.046,0.248-0.079,0.493c-0.01,0.075-0.077,0.358-0.057,0.513c0.038,0.281,0.075,0.562,0.113,0.842
			c0.106,0.252,0.213,0.505,0.319,0.757c0.165,0.214,0.33,0.427,0.496,0.641c0.287,0.309,0.627,0.528,1.02,0.655
			c0.247,0.143,0.514,0.216,0.8,0.216c0.281,0.076,0.562,0.076,0.842,0c0.286-0.001,0.552-0.073,0.8-0.216
			c0.393-0.128,0.733-0.346,1.02-0.655c0.025-0.019,0.041-0.039,0.062-0.062c0.167-0.216,0.334-0.433,0.501-0.649
			c0.007-0.014,0.014-0.028,0.021-0.042c0.033-0.062,0.064-0.125,0.096-0.188c0.028-0.056,0.057-0.111,0.084-0.168
			c0.062-0.134,0.12-0.27,0.173-0.408c0.147-0.253,0.22-0.525,0.221-0.818c0.024-0.182,0.05-0.343,0.066-0.518
			c0.01-0.117,0.02-0.233,0.031-0.35C357.102,241.183,357.071,241.059,357.038,240.815z"/>
		<path style="fill:#B6DD95;" d="M388.218,221.453c-0.078-0.184-0.155-0.367-0.233-0.551c-0.006-0.013-0.019-0.021-0.025-0.033
			c-0.001-0.001-0.002-0.003-0.003-0.005c-0.099-0.241-0.228-0.465-0.416-0.655c-0.178-0.192-0.39-0.328-0.634-0.407
			c-0.235-0.123-0.488-0.18-0.759-0.17c-0.356,0.001-0.687,0.091-0.994,0.269l-0.009,0.005c-0.219,0.081-0.341,0.187-0.55,0.348
			c-0.173,0.103-0.311,0.24-0.414,0.414c-0.068,0.078-0.131,0.159-0.188,0.245c-0.013,0.02-0.026,0.039-0.04,0.059
			c-0.021,0.031-0.042,0.063-0.063,0.094c-0.073,0.107-0.084,0.172-0.151,0.331c-0.108,0.186-0.162,0.385-0.162,0.6
			c-0.016,0.114-0.031,0.229-0.046,0.343c0.028,0.21,0.057,0.42,0.085,0.63c0.073,0.309,0.215,0.578,0.424,0.807
			c0.105,0.178,0.247,0.32,0.425,0.426c0.229,0.21,0.498,0.351,0.807,0.424c0.21,0.028,0.42,0.056,0.63,0.085
			c0.21-0.028,0.42-0.057,0.631-0.085c0.309-0.073,0.577-0.215,0.807-0.424c0.258-0.167,0.462-0.389,0.611-0.666
			c0.005-0.008,0.009-0.016,0.014-0.024c0.08-0.189,0.16-0.379,0.24-0.568c0.068-0.209,0.076-0.448,0.087-0.673
			c0.002-0.041,0.004-0.082,0.006-0.123c0.001-0.018,0.002-0.037,0.003-0.055c0-0.009,0.001-0.018,0.001-0.027
			C388.272,221.862,388.245,221.657,388.218,221.453z"/>
		<g>
			<path style="fill:#F8AC26;" d="M274.274,257.892c6.312,5.739,15.288,8.418,23.714,7.076c3.934-0.626,7.704-2.132,11.041-4.304
				c-1.606,0.66-3.384,1.153-5.368,1.411c-0.954,0.125-1.91,0.184-2.861,0.184c-13.458,0.002-26.319-11.807-31.214-16.866
				c-1.849,7.53-7.321,17.819-18.697,16.687c-11.993-1.193-17.814-11.768-20.019-17.149c-3.749,5.762-13.484,18.382-26.827,18.384
				c-1.06,0-2.141-0.08-3.245-0.249c-14.39-2.201-19.086-15.648-20.508-21.956c-4.619,5.098-15.979,15.846-26.249,11.407
				c-10.314-4.458-11.695-17.931-11.808-23.578c-5.662,2.632-20.812,8.857-31.771,5.904c-0.153,0.139-0.335,0.251-0.545,0.319
				c-3.718,1.204-9.869,3.732-12.35,5.935c6.719,4.531,52.804,21.371,95.058,33.331c3.205,0.014,6.407-0.105,9.597-0.461
				c9.772-1.091,19.569-4.43,26.799-11.095C242.155,273.451,263.752,271.075,274.274,257.892z"/>
			<path style="fill:#F8AC26;" d="M322.877,241.197c-0.508,2.62-1.564,6.509-3.703,10.237c6.735,4.385,15.444,5.607,23.127,3.257
				C334.151,251.627,326.495,244.766,322.877,241.197z"/>
		</g>
		<path style="fill:#FFFFFF;" d="M354.368,257.273c-20.236,8.24-40.663,16.013-61.23,23.387c-1.349,0.484-2.702,0.955-4.057,1.421
			c17.818-4.104,36.427-9.96,49.054-14.213c32.23-10.854,56.44-21.481,58.618-23.878c0.188-0.665-0.524-2.156-1.816-4.045
			c-3.626,1.604-7.25,3.212-10.888,4.789C373.986,249.096,364.457,253.165,354.368,257.273z"/>
		<path style="fill:#7DA962;" d="M162.538,243.175c-0.044-0.19-0.1-0.378-0.15-0.566c-0.154-0.581-0.457-1.138-0.702-1.689
			c-0.159-0.357-0.366-0.667-0.58-0.993c-0.115-0.175-0.229-0.351-0.345-0.525c-0.375-0.561-0.802-0.991-1.453-1.186
			c-0.039-0.014-0.076-0.029-0.115-0.041c-0.007-0.002-0.012-0.005-0.019-0.007c0.004,0.002,0.008,0.003,0.012,0.005
			c-0.366-0.115-0.768-0.152-1.13-0.035c-0.467,0.151-0.983,0.454-1.195,0.919c-0.01,0.021-0.019,0.043-0.029,0.064
			c0.108-0.14,0.216-0.28,0.324-0.42c-0.279,0.347-0.503,0.647-0.639,1.069c-0.087,0.268-0.09,0.532-0.074,0.801
			c0.013,0.202,0.031,0.404,0.047,0.606c0.046,0.598,0.088,1.195,0.23,1.78c0.096,0.396,0.17,0.803,0.329,1.18
			c0.151,0.36,0.288,0.846,0.484,1.149c0.214,0.332,0.457,0.597,0.766,0.835c0.26,0.238,0.566,0.399,0.917,0.482
			c0.082,0.005,0.16,0.023,0.234,0.054c0.207,0.028,0.413,0.056,0.62,0.083c0.321,0.012,0.621-0.055,0.899-0.201
			c0.432-0.182,0.759-0.47,1.027-0.851c-0.084,0.109-0.168,0.218-0.252,0.326c0.348-0.386,0.646-0.781,0.788-1.294
			C162.672,244.21,162.657,243.686,162.538,243.175z"/>
		<path style="fill:#7DA962;" d="M169.451,241.678c-0.061-0.144-0.121-0.287-0.182-0.431c-0.094-0.121-0.188-0.243-0.282-0.365
			c-0.163-0.176-0.357-0.3-0.58-0.373c-0.141-0.082-0.292-0.123-0.455-0.123c-0.16-0.043-0.319-0.043-0.479,0
			c-0.163,0-0.314,0.041-0.455,0.123c-0.224,0.073-0.417,0.197-0.58,0.373c-0.12,0.097-0.23,0.273-0.32,0.397
			c-0.023,0.032-0.046,0.064-0.068,0.096c-0.041,0.057-0.083,0.114-0.123,0.173c-0.116,0.173-0.186,0.387-0.258,0.581
			c-0.024,0.066-0.048,0.133-0.072,0.199c-0.013,0.037-0.029,0.073-0.04,0.111c-0.022,0.168-0.045,0.336-0.068,0.504
			c0,0.014,0,0.029,0,0.044c0.004,0.208,0.056,0.422,0.086,0.629c0.028,0.189,0.095,0.367,0.202,0.531
			c0.155,0.238,0.361,0.462,0.607,0.607c0.04,0.024,0.142,0.064,0.186,0.081c0.039,0.019,0.172,0.077,0.215,0.089
			c0.072,0.026,0.148,0.036,0.228,0.031c0.15,0.04,0.3,0.04,0.45,0c0.087-0.001,0.171-0.014,0.253-0.038
			c0.138-0.058,0.275-0.116,0.413-0.175c0.021-0.014,0.041-0.03,0.061-0.045c0.106-0.077,0.209-0.156,0.313-0.237
			c0.229-0.177,0.191-0.139,0.369-0.37c0.09-0.116,0.136-0.166,0.188-0.277c0.03-0.064,0.06-0.128,0.091-0.191
			c0.089-0.187,0.196-0.387,0.241-0.589c0.015-0.069,0.024-0.14,0.037-0.209c0.007-0.039,0.014-0.077,0.02-0.116
			c0.027-0.161,0.082-0.389,0.065-0.552C169.494,241.997,169.472,241.837,169.451,241.678z"/>
		<path style="fill:#7DA962;" d="M114.038,220.927c-0.194-0.438-0.554-0.807-0.901-1.136c-0.428-0.406-1.048-0.748-1.654-0.593
			c-0.209-0.047-0.407,0.058-0.474,0.26c-0.121,0.115-0.227,0.246-0.313,0.391c-0.144,0.246-0.198,0.5-0.236,0.766
			c0.006-0.04,0.011-0.081,0.016-0.121c-0.034,0.234-0.088,0.46-0.141,0.69c-0.09,0.397-0.064,0.81-0.103,1.213
			c-0.012,0.121-0.042,0.247-0.041,0.368c0,0.135,0.031,0.276,0.04,0.411c0.021,0.303,0.009,0.61,0.093,0.906
			c0.077,0.27,0.196,0.526,0.345,0.764c0.338,0.542,0.837,0.873,1.466,0.958c0.578,0.078,1.293-0.071,1.685-0.552
			c0.148-0.181,0.347-0.402,0.451-0.58c0.227-0.389,0.282-0.725,0.316-1.167c0.015-0.191,0.021-0.384,0.019-0.576
			C114.602,222.195,114.329,221.585,114.038,220.927z"/>
	</g>
</g>
</svg>
